<svg width="189" height="143" viewBox="0 0 189 143" fill="none" xmlns="http://www.w3.org/2000/svg">
<path d="M0 32.5V65L4.8 63C8.4 61.5 25.7 55.8 36.8 52.4C37.7 52.2 38 46 38 26V-9.68575e-07H19H0V32.5Z" fill="#FFFF00"/>
<path d="M73 22.3V44.5L91.8 41.8C102.1 40.3 110.8 39.1 111.3 39C111.7 39 112 30.2 112 19.5V-6.63102e-07H92.5H73V22.3Z" fill="#FFFF00"/>
<path d="M118 41.1C70.2 46.8 37.6 53.7 10.8 63.8L0.499976 67.7L0.199976 90.3C0.0999756 102.8 0.199976 113 0.499976 113C0.799976 113 3.49998 111.2 6.49998 108.9C15.8 101.9 32.8 92.1 53.5 82C75.9 71 92.5 64.1 114 57C122 54.3 128.5 51.7 128.4 51.1C128.3 50.5 128.2 47.7 128.2 45C128.1 41.7 127.6 40 126.8 40.1C126.1 40.2 122.1 40.7 118 41.1Z" fill="#FFFF00"/>
<path d="M97 65.9C90.1 68.6 81.9 71.8 78.8 73L73 75.3V95.1V115H92.5H112V88C112 67.1 111.7 61 110.8 61C110.1 61 103.9 63.2 97 65.9Z" fill="#FFFF00"/>

<path className='Cohete' d="M143.161 23.0518C142.592 23.5932 143.587 25.0819 145.293 26.3C147.994 28.1948 148.279 29.0068 146.857 32.9317C145.151 37.398 146.715 48.09 149.416 51.2028C150.269 52.2855 149.984 53.7743 148.705 55.3984C145.862 59.0526 146.146 60 150.127 60C152.259 60 154.676 58.5112 156.666 56.0751C158.941 53.0976 161.215 52.0149 166.475 51.3382C170.172 50.9321 176.569 48.7667 180.834 46.7365C187.373 43.6237 188.511 42.4056 188.937 38.8867C189.79 31.1723 181.971 27.5181 165.054 27.5181C157.377 27.5181 155.529 27.1121 153.965 24.8112C152.259 22.1044 145.293 21.0217 143.161 23.0518Z" fill="#FFFF00"/>

<path d="M14.7266 135.453C15.2422 135.453 15.7188 135.348 16.1562 135.137C16.5938 134.926 16.9531 134.637 17.2344 134.27C17.5156 133.895 17.6758 133.469 17.7148 132.992H19.7773C19.7383 133.742 19.4844 134.441 19.0156 135.09C18.5547 135.73 17.9492 136.25 17.1992 136.648C16.4492 137.039 15.625 137.234 14.7266 137.234C13.7734 137.234 12.9414 137.066 12.2305 136.73C11.5273 136.395 10.9414 135.934 10.4727 135.348C10.0117 134.762 9.66406 134.09 9.42969 133.332C9.20312 132.566 9.08984 131.758 9.08984 130.906V130.414C9.08984 129.562 9.20312 128.758 9.42969 128C9.66406 127.234 10.0117 126.559 10.4727 125.973C10.9414 125.387 11.5273 124.926 12.2305 124.59C12.9414 124.254 13.7734 124.086 14.7266 124.086C15.7188 124.086 16.5859 124.289 17.3281 124.695C18.0703 125.094 18.6523 125.641 19.0742 126.336C19.5039 127.023 19.7383 127.805 19.7773 128.68H17.7148C17.6758 128.156 17.5273 127.684 17.2695 127.262C17.0195 126.84 16.6758 126.504 16.2383 126.254C15.8086 125.996 15.3047 125.867 14.7266 125.867C14.0625 125.867 13.5039 126 13.0508 126.266C12.6055 126.523 12.25 126.875 11.9844 127.32C11.7266 127.758 11.5391 128.246 11.4219 128.785C11.3125 129.316 11.2578 129.859 11.2578 130.414V130.906C11.2578 131.461 11.3125 132.008 11.4219 132.547C11.5312 133.086 11.7148 133.574 11.9727 134.012C12.2383 134.449 12.5938 134.801 13.0391 135.066C13.4922 135.324 14.0547 135.453 14.7266 135.453ZM29.6914 134.832V128.305C29.6914 127.805 29.5898 127.371 29.3867 127.004C29.1914 126.629 28.8945 126.34 28.4961 126.137C28.0977 125.934 27.6055 125.832 27.0195 125.832C26.4727 125.832 25.9922 125.926 25.5781 126.113C25.1719 126.301 24.8516 126.547 24.6172 126.852C24.3906 127.156 24.2773 127.484 24.2773 127.836H22.1094C22.1094 127.383 22.2266 126.934 22.4609 126.488C22.6953 126.043 23.0312 125.641 23.4688 125.281C23.9141 124.914 24.4453 124.625 25.0625 124.414C25.6875 124.195 26.3828 124.086 27.1484 124.086C28.0703 124.086 28.8828 124.242 29.5859 124.555C30.2969 124.867 30.8516 125.34 31.25 125.973C31.6562 126.598 31.8594 127.383 31.8594 128.328V134.234C31.8594 134.656 31.8945 135.105 31.9648 135.582C32.043 136.059 32.1562 136.469 32.3047 136.812V137H30.043C29.9336 136.75 29.8477 136.418 29.7852 136.004C29.7227 135.582 29.6914 135.191 29.6914 134.832ZM30.0664 129.312L30.0898 130.836H27.8984C27.2812 130.836 26.7305 130.887 26.2461 130.988C25.7617 131.082 25.3555 131.227 25.0273 131.422C24.6992 131.617 24.4492 131.863 24.2773 132.16C24.1055 132.449 24.0195 132.789 24.0195 133.18C24.0195 133.578 24.1094 133.941 24.2891 134.27C24.4688 134.598 24.7383 134.859 25.0977 135.055C25.4648 135.242 25.9141 135.336 26.4453 135.336C27.1094 135.336 27.6953 135.195 28.2031 134.914C28.7109 134.633 29.1133 134.289 29.4102 133.883C29.7148 133.477 29.8789 133.082 29.9023 132.699L30.8281 133.742C30.7734 134.07 30.625 134.434 30.3828 134.832C30.1406 135.23 29.8164 135.613 29.4102 135.98C29.0117 136.34 28.5352 136.641 27.9805 136.883C27.4336 137.117 26.8164 137.234 26.1289 137.234C25.2695 137.234 24.5156 137.066 23.8672 136.73C23.2266 136.395 22.7266 135.945 22.3672 135.383C22.0156 134.812 21.8398 134.176 21.8398 133.473C21.8398 132.793 21.9727 132.195 22.2383 131.68C22.5039 131.156 22.8867 130.723 23.3867 130.379C23.8867 130.027 24.4883 129.762 25.1914 129.582C25.8945 129.402 26.6797 129.312 27.5469 129.312H30.0664ZM37.4375 126.312V137H35.2695V124.32H37.3789L37.4375 126.312ZM41.3984 124.25L41.3867 126.266C41.207 126.227 41.0352 126.203 40.8711 126.195C40.7148 126.18 40.5352 126.172 40.332 126.172C39.832 126.172 39.3906 126.25 39.0078 126.406C38.625 126.562 38.3008 126.781 38.0352 127.062C37.7695 127.344 37.5586 127.68 37.4023 128.07C37.2539 128.453 37.1562 128.875 37.1094 129.336L36.5 129.688C36.5 128.922 36.5742 128.203 36.7227 127.531C36.8789 126.859 37.1172 126.266 37.4375 125.75C37.7578 125.227 38.1641 124.82 38.6562 124.531C39.1562 124.234 39.75 124.086 40.4375 124.086C40.5938 124.086 40.7734 124.105 40.9766 124.145C41.1797 124.176 41.3203 124.211 41.3984 124.25ZM51.3828 124.32H53.3516V136.73C53.3516 137.848 53.125 138.801 52.6719 139.59C52.2188 140.379 51.5859 140.977 50.7734 141.383C49.9688 141.797 49.0391 142.004 47.9844 142.004C47.5469 142.004 47.0312 141.934 46.4375 141.793C45.8516 141.66 45.2734 141.43 44.7031 141.102C44.1406 140.781 43.668 140.348 43.2852 139.801L44.4219 138.512C44.9531 139.152 45.5078 139.598 46.0859 139.848C46.6719 140.098 47.25 140.223 47.8203 140.223C48.5078 140.223 49.1016 140.094 49.6016 139.836C50.1016 139.578 50.4883 139.195 50.7617 138.688C51.043 138.188 51.1836 137.57 51.1836 136.836V127.109L51.3828 124.32ZM42.6523 130.801V130.555C42.6523 129.586 42.7656 128.707 42.9922 127.918C43.2266 127.121 43.5586 126.438 43.9883 125.867C44.4258 125.297 44.9531 124.859 45.5703 124.555C46.1875 124.242 46.8828 124.086 47.6562 124.086C48.4531 124.086 49.1484 124.227 49.7422 124.508C50.3438 124.781 50.8516 125.184 51.2656 125.715C51.6875 126.238 52.0195 126.871 52.2617 127.613C52.5039 128.355 52.6719 129.195 52.7656 130.133V131.211C52.6797 132.141 52.5117 132.977 52.2617 133.719C52.0195 134.461 51.6875 135.094 51.2656 135.617C50.8516 136.141 50.3438 136.543 49.7422 136.824C49.1406 137.098 48.4375 137.234 47.6328 137.234C46.875 137.234 46.1875 137.074 45.5703 136.754C44.9609 136.434 44.4375 135.984 44 135.406C43.5625 134.828 43.2266 134.148 42.9922 133.367C42.7656 132.578 42.6523 131.723 42.6523 130.801ZM44.8203 130.555V130.801C44.8203 131.434 44.8828 132.027 45.0078 132.582C45.1406 133.137 45.3398 133.625 45.6055 134.047C45.8789 134.469 46.2266 134.801 46.6484 135.043C47.0703 135.277 47.5742 135.395 48.1602 135.395C48.8789 135.395 49.4727 135.242 49.9414 134.938C50.4102 134.633 50.7812 134.23 51.0547 133.73C51.3359 133.23 51.5547 132.688 51.7109 132.102V129.277C51.625 128.848 51.4922 128.434 51.3125 128.035C51.1406 127.629 50.9141 127.27 50.6328 126.957C50.3594 126.637 50.0195 126.383 49.6133 126.195C49.207 126.008 48.7305 125.914 48.1836 125.914C47.5898 125.914 47.0781 126.039 46.6484 126.289C46.2266 126.531 45.8789 126.867 45.6055 127.297C45.3398 127.719 45.1406 128.211 45.0078 128.773C44.8828 129.328 44.8203 129.922 44.8203 130.555ZM64.1211 134.832V128.305C64.1211 127.805 64.0195 127.371 63.8164 127.004C63.6211 126.629 63.3242 126.34 62.9258 126.137C62.5273 125.934 62.0352 125.832 61.4492 125.832C60.9023 125.832 60.4219 125.926 60.0078 126.113C59.6016 126.301 59.2812 126.547 59.0469 126.852C58.8203 127.156 58.707 127.484 58.707 127.836H56.5391C56.5391 127.383 56.6562 126.934 56.8906 126.488C57.125 126.043 57.4609 125.641 57.8984 125.281C58.3438 124.914 58.875 124.625 59.4922 124.414C60.1172 124.195 60.8125 124.086 61.5781 124.086C62.5 124.086 63.3125 124.242 64.0156 124.555C64.7266 124.867 65.2812 125.34 65.6797 125.973C66.0859 126.598 66.2891 127.383 66.2891 128.328V134.234C66.2891 134.656 66.3242 135.105 66.3945 135.582C66.4727 136.059 66.5859 136.469 66.7344 136.812V137H64.4727C64.3633 136.75 64.2773 136.418 64.2148 136.004C64.1523 135.582 64.1211 135.191 64.1211 134.832ZM64.4961 129.312L64.5195 130.836H62.3281C61.7109 130.836 61.1602 130.887 60.6758 130.988C60.1914 131.082 59.7852 131.227 59.457 131.422C59.1289 131.617 58.8789 131.863 58.707 132.16C58.5352 132.449 58.4492 132.789 58.4492 133.18C58.4492 133.578 58.5391 133.941 58.7188 134.27C58.8984 134.598 59.168 134.859 59.5273 135.055C59.8945 135.242 60.3438 135.336 60.875 135.336C61.5391 135.336 62.125 135.195 62.6328 134.914C63.1406 134.633 63.543 134.289 63.8398 133.883C64.1445 133.477 64.3086 133.082 64.332 132.699L65.2578 133.742C65.2031 134.07 65.0547 134.434 64.8125 134.832C64.5703 135.23 64.2461 135.613 63.8398 135.98C63.4414 136.34 62.9648 136.641 62.4102 136.883C61.8633 137.117 61.2461 137.234 60.5586 137.234C59.6992 137.234 58.9453 137.066 58.2969 136.73C57.6562 136.395 57.1562 135.945 56.7969 135.383C56.4453 134.812 56.2695 134.176 56.2695 133.473C56.2695 132.793 56.4023 132.195 56.668 131.68C56.9336 131.156 57.3164 130.723 57.8164 130.379C58.3164 130.027 58.918 129.762 59.6211 129.582C60.3242 129.402 61.1094 129.312 61.9766 129.312H64.4961ZM71.8672 127.027V137H69.6992V124.32H71.75L71.8672 127.027ZM71.3516 130.18L70.4492 130.145C70.457 129.277 70.5859 128.477 70.8359 127.742C71.0859 127 71.4375 126.355 71.8906 125.809C72.3438 125.262 72.8828 124.84 73.5078 124.543C74.1406 124.238 74.8398 124.086 75.6055 124.086C76.2305 124.086 76.793 124.172 77.293 124.344C77.793 124.508 78.2188 124.773 78.5703 125.141C78.9297 125.508 79.2031 125.984 79.3906 126.57C79.5781 127.148 79.6719 127.855 79.6719 128.691V137H77.4922V128.668C77.4922 128.004 77.3945 127.473 77.1992 127.074C77.0039 126.668 76.7188 126.375 76.3438 126.195C75.9688 126.008 75.5078 125.914 74.9609 125.914C74.4219 125.914 73.9297 126.027 73.4844 126.254C73.0469 126.48 72.668 126.793 72.3477 127.191C72.0352 127.59 71.7891 128.047 71.6094 128.562C71.4375 129.07 71.3516 129.609 71.3516 130.18ZM90.957 134.539V119H93.1367V137H91.1445L90.957 134.539ZM82.4258 130.801V130.555C82.4258 129.586 82.543 128.707 82.7773 127.918C83.0195 127.121 83.3594 126.438 83.7969 125.867C84.2422 125.297 84.7695 124.859 85.3789 124.555C85.9961 124.242 86.6836 124.086 87.4414 124.086C88.2383 124.086 88.9336 124.227 89.5273 124.508C90.1289 124.781 90.6367 125.184 91.0508 125.715C91.4727 126.238 91.8047 126.871 92.0469 127.613C92.2891 128.355 92.457 129.195 92.5508 130.133V131.211C92.4648 132.141 92.2969 132.977 92.0469 133.719C91.8047 134.461 91.4727 135.094 91.0508 135.617C90.6367 136.141 90.1289 136.543 89.5273 136.824C88.9258 137.098 88.2227 137.234 87.418 137.234C86.6758 137.234 85.9961 137.074 85.3789 136.754C84.7695 136.434 84.2422 135.984 83.7969 135.406C83.3594 134.828 83.0195 134.148 82.7773 133.367C82.543 132.578 82.4258 131.723 82.4258 130.801ZM84.6055 130.555V130.801C84.6055 131.434 84.668 132.027 84.793 132.582C84.9258 133.137 85.1289 133.625 85.4023 134.047C85.6758 134.469 86.0234 134.801 86.4453 135.043C86.8672 135.277 87.3711 135.395 87.957 135.395C88.6758 135.395 89.2656 135.242 89.7266 134.938C90.1953 134.633 90.5703 134.23 90.8516 133.73C91.1328 133.23 91.3516 132.688 91.5078 132.102V129.277C91.4141 128.848 91.2773 128.434 91.0977 128.035C90.9258 127.629 90.6992 127.27 90.418 126.957C90.1445 126.637 89.8047 126.383 89.3984 126.195C89 126.008 88.5273 125.914 87.9805 125.914C87.3867 125.914 86.875 126.039 86.4453 126.289C86.0234 126.531 85.6758 126.867 85.4023 127.297C85.1289 127.719 84.9258 128.211 84.793 128.773C84.668 129.328 84.6055 129.922 84.6055 130.555ZM95.9375 130.801V130.531C95.9375 129.617 96.0703 128.77 96.3359 127.988C96.6016 127.199 96.9844 126.516 97.4844 125.938C97.9844 125.352 98.5898 124.898 99.3008 124.578C100.012 124.25 100.809 124.086 101.691 124.086C102.582 124.086 103.383 124.25 104.094 124.578C104.812 124.898 105.422 125.352 105.922 125.938C106.43 126.516 106.816 127.199 107.082 127.988C107.348 128.77 107.48 129.617 107.48 130.531V130.801C107.48 131.715 107.348 132.562 107.082 133.344C106.816 134.125 106.43 134.809 105.922 135.395C105.422 135.973 104.816 136.426 104.105 136.754C103.402 137.074 102.605 137.234 101.715 137.234C100.824 137.234 100.023 137.074 99.3125 136.754C98.6016 136.426 97.9922 135.973 97.4844 135.395C96.9844 134.809 96.6016 134.125 96.3359 133.344C96.0703 132.562 95.9375 131.715 95.9375 130.801ZM98.1055 130.531V130.801C98.1055 131.434 98.1797 132.031 98.3281 132.594C98.4766 133.148 98.6992 133.641 98.9961 134.07C99.3008 134.5 99.6797 134.84 100.133 135.09C100.586 135.332 101.113 135.453 101.715 135.453C102.309 135.453 102.828 135.332 103.273 135.09C103.727 134.84 104.102 134.5 104.398 134.07C104.695 133.641 104.918 133.148 105.066 132.594C105.223 132.031 105.301 131.434 105.301 130.801V130.531C105.301 129.906 105.223 129.316 105.066 128.762C104.918 128.199 104.691 127.703 104.387 127.273C104.09 126.836 103.715 126.492 103.262 126.242C102.816 125.992 102.293 125.867 101.691 125.867C101.098 125.867 100.574 125.992 100.121 126.242C99.6758 126.492 99.3008 126.836 98.9961 127.273C98.6992 127.703 98.4766 128.199 98.3281 128.762C98.1797 129.316 98.1055 129.906 98.1055 130.531ZM116.188 135.852C116.188 135.484 116.301 135.176 116.527 134.926C116.762 134.668 117.098 134.539 117.535 134.539C117.973 134.539 118.305 134.668 118.531 134.926C118.766 135.176 118.883 135.484 118.883 135.852C118.883 136.211 118.766 136.516 118.531 136.766C118.305 137.016 117.973 137.141 117.535 137.141C117.098 137.141 116.762 137.016 116.527 136.766C116.301 136.516 116.188 136.211 116.188 135.852ZM122.516 135.852C122.516 135.484 122.629 135.176 122.855 134.926C123.09 134.668 123.426 134.539 123.863 134.539C124.301 134.539 124.633 134.668 124.859 134.926C125.094 135.176 125.211 135.484 125.211 135.852C125.211 136.211 125.094 136.516 124.859 136.766C124.633 137.016 124.301 137.141 123.863 137.141C123.426 137.141 123.09 137.016 122.855 136.766C122.629 136.516 122.516 136.211 122.516 135.852ZM128.844 135.852C128.844 135.484 128.957 135.176 129.184 134.926C129.418 134.668 129.754 134.539 130.191 134.539C130.629 134.539 130.961 134.668 131.188 134.926C131.422 135.176 131.539 135.484 131.539 135.852C131.539 136.211 131.422 136.516 131.188 136.766C130.961 137.016 130.629 137.141 130.191 137.141C129.754 137.141 129.418 137.016 129.184 136.766C128.957 136.516 128.844 136.211 128.844 135.852Z" fill="black"/>
</svg>
