<svg width="131" height="88" viewBox="0 0 131 88" fill="none" xmlns="http://www.w3.org/2000/svg">
<g style="mix-blend-mode:hard-light">
<g style="mix-blend-mode:hard-light">
<path  d="M0 43.6174V87.2348H18.8588H37.7176V78.0522C37.7176 73.0017 37.1588 68.8696 36.6 68.8696C35.9015 68.8696 30.4534 70.8209 24.3069 73.3461L13.271 77.7078L12.8519 64.5078C12.7122 57.2765 12.8519 51.0783 13.271 50.7339C13.6901 50.3896 19.1382 49.0122 25.4244 47.6348L37.0191 45.1096L37.4382 22.6122L37.7176 0H18.8588H0V43.6174Z" fill="black"/>
</g>
<g style="mix-blend-mode:hard-light">
<path d="M60.0687 20.6609C60.0687 32.0243 60.4878 41.3217 61.1863 41.3217C61.745 41.3217 70.1267 40.5183 80.045 39.3704L97.7862 37.4191V18.7096V0H78.9275H60.0687V20.6609Z" fill="black"/>
</g>
<g style="mix-blend-mode:hard-light">
<path className="Cohetico" d="M104.631 29.062C104.631 29.636 105.05 30.4394 105.469 30.7838C106.028 31.1281 106.447 35.1455 106.447 39.622C106.587 47.6568 107.705 49.2638 111.337 46.2794C112.315 45.4759 117.064 43.7542 121.814 42.4916C129.357 40.4255 130.475 39.8516 130.894 37.0968C131.453 33.309 127.541 31.5873 118.74 31.5873C115.667 31.5873 112.594 30.8986 111.616 29.8655C109.8 28.029 104.631 27.4551 104.631 29.062Z" fill="black"/>
</g>
<g style="mix-blend-mode:hard-light">
<path d="M80.3244 54.407C71.1046 57.047 62.7229 59.5722 61.745 60.1461C60.6275 60.72 60.0687 64.967 60.0687 74.1496V87.2348H78.9275H97.7862V68.2957C97.7862 57.8504 97.6466 49.3565 97.5069 49.4713C97.2275 49.4713 89.5443 51.6522 80.3244 54.407Z" fill="black"/>
</g>
</g>
</svg>
