<svg width="195" height="132" viewBox="0 0 195 132" fill="none" xmlns="http://www.w3.org/2000/svg">
<rect width="195" height="132" fill="black"/>
<path d="M26 41.5V74L30.8 72C34.4 70.5 51.7 64.8 62.8 61.4C63.7 61.2 64 55 64 35V9H45H26V41.5Z" fill="#FAE800"/>
<path d="M99 31.3V53.5L117.8 50.8C128.1 49.3 136.8 48.1 137.3 48C137.7 48 138 39.2 138 28.5V9H118.5H99V31.3Z" fill="#FAE800"/>
<!-- <path className="Cohete" d="M154.6 41.7C154.2 42.1 154.9 43.2 156.1 44.1C158 45.5 158.2 46.1 157.2 49C156 52.3 157.1 60.2 159 62.5C159.6 63.3 159.4 64.4 158.5 65.6C156.5 68.3 156.7 69 159.5 69C161 69 162.7 67.9 164.1 66.1C165.7 63.9 167.3 63.1 171 62.6C173.6 62.3 178.1 60.7 181.1 59.2C185.7 56.9 186.5 56 186.8 53.4C187.4 47.7 181.9 45 170 45C164.6 45 163.3 44.7 162.2 43C161 41 156.1 40.2 154.6 41.7Z" fill="blue"/> -->
<path d="M144 50.1C96.2 55.8 63.6 62.7 36.8 72.8L26.5 76.7L26.2 99.3C26.1 111.8 26.2 122 26.5 122C26.8 122 29.5 120.2 32.5 117.9C41.8 110.9 58.8 101.1 79.5 91C101.9 80 118.5 73.1 140 66C148 63.3 154.5 60.7 154.4 60.1C154.3 59.5 154.2 56.7 154.2 54C154.1 50.7 153.6 49 152.8 49.1C152.1 49.2 148.1 49.7 144 50.1Z" fill="#FAE800"/>
<path d="M123 74.9C116.1 77.6 107.9 80.8 104.8 82L99 84.3V104.1V124H118.5H138V97C138 76.1 137.7 70 136.8 70C136.1 70 129.9 72.2 123 74.9Z" fill="#FAE800"/>
</svg>
