<svg width="467" height="464" viewBox="0 0 467 464" fill="none" xmlns="http://www.w3.org/2000/svg">
<g clip-path="url(#clip0_1_84)">
<path fill-rule="evenodd" clip-rule="evenodd" d="M467.003 232.218C467.003 360.167 362.463 463.897 233.5 463.897C104.545 463.897 -0.0020752 360.174 -0.0020752 232.218C-0.0020752 104.27 104.538 0.539612 233.5 0.539612C362.456 0.539612 467.003 104.263 467.003 232.218V232.218Z" fill="#D1D1D2"/>
<path fill-rule="evenodd" clip-rule="evenodd" d="M14.6312 313.002C-3.6854 260.414 -7.29921 200.998 20.6593 136.949C21.8336 134.259 25.4495 143.62 25.4495 146.536V159.252C25.4495 164.688 26.1588 165.765 27.9762 169.423C29.2761 172.037 30.7014 174.906 32.1875 177.898C33.8488 181.24 33.4491 182.976 34.7142 188.068C35.4521 191.033 36.2985 196.338 38.0839 199.934C40.3706 204.539 40.777 209.59 43.1374 214.338C45.1588 218.408 47.8471 223.974 49.0338 228.75C50.2477 233.643 52.5596 238.392 54.9261 243.161C56.7129 246.75 57.429 251.609 59.9796 254.176C62.1619 256.365 64.1669 258.197 68.4089 259.261C73.6533 260.585 81.8643 261.8 86.9383 264.346C90.3141 266.048 95.4289 266.926 98.7297 268.587C101.219 269.836 103.456 272.238 106.307 273.672C110.521 275.793 112.772 277.632 115.575 280.453C116.966 281.853 121.467 286.128 121.467 288.928V301.644C121.467 303.655 120.212 313.091 121.467 314.354C123.377 316.275 124.754 320.757 129.051 318.595C131.785 317.216 134.145 316.008 136.627 313.51C138.066 312.062 140.978 307.608 144.211 308.425C145.855 308.836 149.162 309.166 151.795 311.815C153.963 313.997 155.955 315.157 158.533 317.744C160.115 319.343 162.87 322.472 165.271 323.68C166.464 324.277 172.418 327.036 172.847 328.765C173.598 331.771 174.566 336.17 170.324 337.241C166.519 338.194 164.78 338.757 161.056 340.631C159.003 341.66 155.266 344.206 152.633 344.865C148.126 346.004 146.093 346.162 144.211 349.95C142.711 352.976 140.951 354.081 138.312 356.73C136.273 358.789 132.972 360.676 136.627 364.361C138.469 366.207 140.528 368.863 143.365 370.291C146.687 371.958 149.278 373.688 152.633 375.376C154.864 376.501 159.283 377.833 161.056 379.617C164.861 383.446 163.518 383.412 158.533 382.156C154.809 381.223 151.665 379.583 148.426 378.766C144.695 377.833 141.197 377.922 136.627 377.922C132.058 377.922 128.573 377.071 123.997 377.071C118.882 377.071 114.586 376.227 109.676 376.227C107.145 376.227 98.7911 376.879 102.099 381.312C105.147 385.402 106.109 385.546 112.206 385.546C116.482 385.546 119.762 385.526 122.313 388.092C124.563 390.357 125.832 392.635 127.366 395.723C129.207 399.436 131.54 402.428 133.258 405.894C135.25 409.895 136.409 411.604 139.996 415.213C142.172 417.402 146.366 418.912 150.949 417.759C153.759 417.052 161.636 413.841 162.74 416.064C161.226 413.01 160.926 422.968 158.533 425.384C155.511 428.424 151.795 426.66 149.264 425.384C146.393 423.936 142.731 423.366 139.996 421.993C136.559 420.264 134.684 418.473 131.574 416.908C126.664 414.438 127.407 414.191 128.205 410.979C129.651 405.173 127.516 407.589 122.313 407.589C117.593 407.589 114.518 408.488 111.36 409.284C105.897 410.656 109.184 413.017 111.36 415.213C115.977 419.859 108.959 415.275 107.152 414.369C104.131 412.846 101.458 410.334 99.5686 408.433C96.6701 405.516 93.799 404.322 91.1461 401.653C88.7455 399.237 86.154 397.871 83.5693 396.568C80.5276 395.037 78.775 392.594 76.8313 390.638C75.065 388.861 80.2003 387.681 80.2003 383.007C80.2003 377.044 79.5729 376.446 76.8313 373.681C74.5058 371.348 75.7811 380.667 73.4623 383.007C72.7804 383.687 65.4559 378.979 65.0399 378.766C61.9778 377.229 59.7068 375.946 57.4562 373.681C55.1716 371.389 54.0804 367.457 52.4028 365.206C50.1863 362.234 49.2111 360.168 45.6641 359.276C43.863 358.823 40.852 353.587 39.7684 352.496C37.1946 349.902 36.0414 347.898 33.872 345.716C31.114 342.936 32.7242 338.702 33.872 336.39C35.2919 333.535 37.9318 331.455 39.7684 329.609C39.8229 329.554 32.4275 331.881 31.3452 332.155C26.5482 333.363 27.106 330.433 24.6073 327.914C22.6773 325.972 22.9228 320.674 22.9228 316.9C22.9228 313.805 17.0168 313.606 14.6312 313.002V313.002Z" fill="url(#paint0_linear_1_84)"/>
<path fill-rule="evenodd" clip-rule="evenodd" d="M386.996 329.39C378.274 337.405 385.393 350.286 394.621 352.983C393.161 365.7 378.942 362.708 371.965 370.16C368.419 377.098 395.071 371.499 381.527 378.944C374.543 379.665 365.5 405.997 373.732 393.177C382.14 391.846 388.681 378.183 397.253 384.558C404.489 381.971 405.178 384.922 399.054 388.73C393.168 393.898 388.974 407.218 381.186 401.419C375.389 409.854 364.122 414.314 354.063 414.383C346.643 415.694 358.714 426.955 347.318 427.916C336.079 433.749 345.579 414.067 351.601 413.909C351.595 405.29 356.546 401.248 365.2 401.982C373.677 389.225 369.831 386.027 362.179 394.262C355.311 401.303 344.625 404.7 334.934 403.979C331.394 395.106 320.598 399.937 315.313 395.785C324.499 385.972 339.339 385.471 350.19 378.148C356.525 375.266 367.321 376.124 363.556 366.304C366.387 359.963 379.092 360.155 379.774 356.161C373.977 355.447 370.124 355.845 369.503 351.014C360.112 353.038 359.287 360.711 360.276 368.486C355.093 378.059 343.131 373.839 334.9 378.258C324.561 380.132 312.96 381.326 303.399 376.227C296.484 372.981 285.197 382.863 281.61 379.644C288 372.164 298.748 374.93 306.768 370.291C315.218 365.233 329.444 353.162 325.243 342.916C312.572 339.965 307.504 357.883 299.846 362.495C293.626 360.059 289.35 355.776 282.36 358.377C283.165 352.297 282.94 346.478 274.183 346.292C263.176 350.094 252.516 337.275 264.656 330.46C265.467 322.623 251.487 331.407 247.961 333.432C233.666 339.162 243.835 319.597 248.247 314.958C248.8 305.398 252.953 294.109 247.667 285.462C241.223 282.47 229.397 269.129 241.891 266.57C252.271 271.373 267.036 265.231 259.629 252.282C257.638 246.339 250.893 231.577 261.505 231.941C264.444 225.71 255.831 215.574 267.186 212.643C273.146 204.909 278.875 198.033 288.784 195.926C298.898 189.304 306.052 179.847 310.948 168.812C313.82 155.382 330.774 165.093 339.851 165.648C346.486 170.48 341.863 184.054 340.089 191.527C336.652 200.744 337.437 211.381 339.244 220.892C343.527 230.877 353.32 237.067 358.987 245.982C363.713 256.07 357.63 270.934 367.512 277.577C375.682 285.812 381.363 305.089 385.932 315.534C387.146 317.051 404.182 319.823 410.088 311.238C417.187 314.162 421.954 320.331 421.388 321.031C419.752 323.076 429.531 331.593 420.481 335.25C416.042 337.042 413.778 329.026 409.993 326.686C406.208 324.339 400.008 328.106 398.494 328.161C392.452 328.367 387.896 327.564 386.996 329.39V329.39Z" fill="url(#paint1_linear_1_84)"/>
<path fill-rule="evenodd" clip-rule="evenodd" d="M284.87 200.778C279.216 204.168 281.235 211.532 280.389 216.953C278.602 222.622 272.164 223.96 267.07 224.996C261.075 226.032 256.54 231.721 250.041 230.541C244.53 230.294 238.29 231.385 233.823 227.288C192.638 181.673 213.623 145.774 217.49 136.681C200.42 103.638 323.572 115.805 308.943 158.058C310.389 162.807 309.448 167.913 309.08 172.724C306.461 176.766 301.353 179.154 301.107 184.527C298.973 189.681 286.909 199.9 284.87 200.778Z" fill="#B3B3B5"/>
<path fill-rule="evenodd" clip-rule="evenodd" d="M334.565 171.962C333.522 173.039 331.728 173.074 330.324 173.506C327.657 174.014 324.95 174.59 322.222 174.46C318.996 173.746 316.929 170.871 314.147 169.327C312.258 168.194 310.423 170.109 310.253 171.969C310.096 173.609 309.298 176.128 311.078 177.123C313.683 178.447 316.643 178.735 319.405 179.593C321.24 180.561 319.685 182.688 318.682 183.697C317.393 185.035 315.961 186.284 314.352 187.217C312.688 187.588 310.539 188.569 310.682 190.594C310.498 192.296 312.565 193.792 311.562 195.384C309.782 198.081 306.222 199.289 305.138 202.5C304.442 203.708 305.772 204.834 306.522 203.399C307.47 201.986 308.193 200.304 309.919 199.652C311.903 198.582 314.072 197.93 316.227 197.319C317.55 196.276 317.611 194.375 317.932 192.831C318.293 190.848 318.198 188.789 318.689 186.833C319.787 184.651 322.617 184.39 324.07 182.517C325.932 180.451 327.746 178.193 330.358 177.047C331.974 176.539 333.536 175.949 333.768 174C334.033 173.321 334.299 172.641 334.565 171.962V171.962Z" fill="#FBFBFC"/>
<path fill-rule="evenodd" clip-rule="evenodd" d="M341.263 103.727C344.311 97.1872 345.9 94.0099 341.263 89.3433C336.502 84.5532 330.542 92.8226 330.542 82.1513C330.542 77.8279 336.645 75.5564 337.689 71.3633C338.705 67.2801 334.49 60.1293 332.922 56.9794C329.935 50.9677 329.88 50.3227 325.775 46.1914C320.783 41.1652 326.743 26.6392 329.948 23.4193C332.492 20.8588 267.104 -11.8627 179.858 10.8333C178.965 11.0659 174.068 26.2514 173.311 27.0146C168.967 31.3833 167.016 31.6434 168.544 37.8025C168.701 38.425 189.638 35.472 191.254 35.472C197.208 35.472 198.347 38.3673 204.28 37.8025C231.191 35.26 317.959 53.0128 325.775 55.7853C331.776 57.9058 329.976 62.9155 328.162 66.5664C327.043 68.8105 319.03 72.1594 317.441 73.7584C316.397 74.8152 321.533 81.1082 319.821 84.5464C317.584 89.0551 314.529 90.009 319.821 95.3343C323.681 99.2186 324.329 102.272 328.162 106.122C330.235 108.215 340.662 103.967 341.263 103.727Z" fill="url(#paint2_linear_1_84)"/>
<path fill-rule="evenodd" clip-rule="evenodd" d="M212.736 169.752C212.532 170.178 218.751 168.242 219.884 167.954C222.782 167.227 224.391 165.992 226.437 164.962C230.604 162.862 228.02 163.761 230.604 163.761C233.441 163.761 234.601 162.91 235.965 160.165C236.967 158.141 238.836 156.679 240.132 155.368C241.345 154.154 243.085 153.577 245.492 152.973C248.956 152.102 250.054 152.582 252.046 150.578C254.699 147.909 246.658 148.176 245.492 148.176C241.932 148.176 240.95 149.096 241.918 145.184C241.966 144.999 234.246 144.004 234.178 143.983C231.777 143.379 229.95 140.655 228.224 139.79C225.66 138.5 224.057 137.395 221.67 136.791C218.867 136.084 218.615 132.873 218.097 130.8C217.333 127.719 220.163 125.941 221.67 124.802C224.057 123.004 225.128 123.19 228.224 122.407C231.586 121.563 234.048 122.881 235.371 124.205C237.206 126.051 240.084 125.99 242.518 126.6C244.469 127.094 243.596 130.196 247.879 130.196C252.564 130.196 252.789 130.944 253.833 131.994C254.637 132.811 241.414 137.388 252.046 137.388C255.053 137.388 254.549 140.984 258.6 140.984C261.464 140.984 262.637 139.221 265.147 138.589C266.579 138.232 267.84 133.758 268.127 132.598C268.72 130.203 270.493 129.057 271.107 126.6C271.789 123.848 272.86 122.544 273.487 120.012C274.149 117.343 275.867 116.711 275.867 113.417C275.867 110.041 276.699 108.504 278.848 107.426C280.846 106.424 278.316 104.674 277.654 102.032C276.856 98.8274 275.983 97.098 275.274 94.2432C274.633 91.6629 276.863 89.2472 277.654 87.6482C279.38 84.1826 275.104 83.263 273.487 82.8513C272.164 82.5219 270.043 85.9669 268.127 86.4473C265.256 87.1679 265.747 83.5238 265.747 80.4563C265.747 76.9358 264.499 76.2358 262.173 75.0623C260.141 74.0397 257.781 76.8603 255.026 76.8603C253.232 76.8603 251.903 73.1133 250.852 72.0633C249.413 70.6153 249.045 67.7673 248.472 65.4752C247.654 62.1812 245.683 63.0733 241.918 63.0733C240.943 63.0733 237.833 60.5479 235.965 60.0812C233.387 59.4293 230.932 58.8117 228.818 58.2832C226.444 57.6862 224.998 56.5676 222.27 55.8813C219.774 55.2568 216.842 55.298 214.523 55.8813C213.862 56.0529 210.868 52.8 210.356 52.2853C206.537 48.4423 197.494 53.6647 195.469 54.6872C193.402 55.7235 190.94 56.5745 188.915 57.0823C185.955 57.8234 184.284 59.7107 182.361 60.6783C180.329 61.7008 178.733 63.389 177.601 63.6772C177.171 63.7802 172.813 60.9734 171.64 60.6783C168.837 59.9714 165.816 60.0812 162.706 60.0812C159.651 60.0812 158.232 61.4332 156.159 62.4763C154.386 63.3684 153.322 66.388 152.586 67.8703C151.283 70.4849 150.199 70.4643 150.199 74.4652C150.199 77.272 152.156 77.972 151.392 81.0533C150.806 83.4072 146.107 78.9945 145.439 78.6583C145.22 78.5485 141.579 82.6248 140.671 82.8513C138.407 83.4209 138.128 87.0924 137.698 88.8492C137.207 90.8188 134.616 92.5481 133.524 93.6393C131.635 95.5471 130.36 97.0157 129.357 99.0333C127.618 102.533 125.777 100.207 125.191 97.8392C124.72 95.9588 128.846 93.0422 123.404 93.0422C121.303 93.0422 119.155 95.1765 117.443 96.0412C114.565 97.4892 113.085 93.4677 112.683 91.8413C112.192 89.8717 114.381 86.6257 115.063 85.2532C116.338 82.6866 116.107 80.4357 116.85 77.4573C117.389 75.3024 119.148 75.3848 119.83 72.6672C120.601 69.5379 124.631 73.3398 122.21 68.4673C120.867 65.7703 124.44 61.2342 125.191 59.4773C126.5 56.3892 128.314 56.9725 131.144 57.6793C133.743 58.3381 137.384 57.6793 140.078 57.6793C143.959 57.6793 144.204 56.5264 146.032 54.6872C147.594 53.1157 149.803 51.8873 151.392 51.0913C154.25 49.6501 155.968 50.6795 157.946 48.6893C159.187 47.4404 162.904 46.4933 164.493 45.6973C166.962 44.4531 169.062 44.5464 171.64 43.8972C173.952 43.3159 176.394 42.406 178.194 41.5001C181.147 40.0157 174.498 38.0235 174.027 37.9041C171.497 37.2679 169.649 36.7059 166.28 36.7059H157.346C154.448 36.7059 152.593 37.9 150.199 39.103C148.01 40.2058 145.957 40.7706 143.052 41.5001C140.556 42.1294 138.912 43.2919 136.505 43.8972C134.445 44.4146 134.493 46.6855 130.551 45.6973C128.798 45.2581 126.391 47.4953 123.404 47.4953C120.26 47.4953 119.291 45.9375 118.637 43.2981C117.887 40.2765 120.41 39.1524 121.017 36.7059C121.644 34.186 116.182 38.541 113.87 39.7021C111.585 40.8516 109.737 41.7822 107.916 42.699C105.44 43.9425 104.117 44.7255 102.556 46.2943C99.3707 49.4991 93.0624 53.5549 87.668 55.8813C85.5606 56.7941 84.3399 58.4548 82.3076 59.4773C80.4935 60.3901 79.3273 63.0802 78.1339 64.2743C76.1766 66.2507 75.0309 67.534 73.967 69.6683C72.5962 72.4339 77.4519 68.8173 78.1339 68.4673C82.4303 66.3125 80.0639 69.5242 78.734 70.8692C76.9131 72.6947 75.5014 73.5182 73.967 75.0623C72.1461 76.8946 71.3345 78.3151 69.8001 79.8592C67.3586 82.3091 66.2128 81.0258 65.033 78.6583C64.9307 78.4524 60.7502 83.565 60.266 84.0522C58.8202 85.5071 57.4903 88.0463 56.0991 89.4462C53.7326 91.8276 53.187 93.3236 56.6924 92.4452C58.7861 91.9168 54.3941 95.3618 53.719 96.0412C51.2979 98.4705 52.0345 95.8628 48.9519 96.6382C47.247 97.0637 45.1567 99.8568 44.1883 100.831C41.2012 103.837 42.6306 103.549 42.9975 105.031C43.3263 106.356 44.4474 106.562 41.8061 109.224C39.9866 111.057 38.5749 111.873 37.0411 113.417C35.2843 115.188 34.4353 116.862 33.4682 118.811C32.5448 120.671 30.1136 122.188 28.1079 124.205C27.3515 124.967 29.7767 126.243 29.2986 127.204C28.1208 129.572 27.3004 131.226 26.3211 133.195C24.7934 136.27 30.3823 127.664 32.2768 124.802C33.8795 122.387 34.9393 120.328 36.4457 118.811C38.326 116.917 39.7493 115.49 41.2107 114.014C42.3422 112.882 41.3308 117.37 40.6147 118.811C39.4778 121.103 38.0709 122.133 37.0411 124.205C35.9956 126.312 33.9217 126.889 32.8722 129.002C31.7605 131.239 29.7828 131.624 28.7032 133.792C27.1265 136.97 26.2706 135.988 26.9164 138.589C27.4286 140.648 30.1415 135.693 31.0854 133.792C32.3041 131.342 34.9474 133.236 35.8504 129.599C36.5119 126.937 39.0632 126.243 40.0193 126.003C41.5722 125.612 42.6354 128.014 44.1883 128.398C46.2649 128.92 41.8061 132.241 41.8061 134.396C41.8061 139.982 38.3792 132.008 37.0411 137.388C36.6135 139.111 34.2955 141.122 33.4682 142.782C32.3307 145.074 30.9238 146.104 29.8946 148.176C28.5477 150.887 26.9164 143.427 26.9164 142.185C26.9164 138.884 26.6525 140.655 24.5343 142.782C23.0598 144.271 22.2735 147.332 21.5561 148.78C20.469 150.969 21.0746 154.627 21.5561 156.569C22.3942 159.946 25.0423 158.71 26.9164 157.77C29.9021 156.267 28.7032 159.026 28.7032 162.56C28.7032 166.643 25.6868 164.358 22.7475 164.358C21.106 164.358 19.6001 168.894 19.1739 169.752C18.1605 171.79 18.4967 175.476 17.9825 177.548C17.1934 180.719 15.2846 181.961 19.1739 182.942C20.5263 183.278 22.8764 178.173 23.3429 177.548C24.5861 175.881 24.5343 172.435 24.5343 169.752C24.5343 166.952 25.1296 175.338 25.1296 178.145C25.1296 181.94 28.4693 179.943 31.0854 179.943C33.3489 179.943 30.8481 185.516 32.8722 186.538C36.2507 188.233 32.9888 188.871 30.49 190.134C30.0713 190.34 32.8722 193.147 32.8722 194.327C32.8722 199.508 29.2986 193.366 29.2986 198.52C29.2986 202.603 29.7896 203.207 31.6814 205.115C33.501 206.947 34.3166 208.368 35.8504 209.905C38.1439 212.218 36.3066 214.846 35.2543 215.903C34.0854 217.077 32.4923 210.235 31.0854 215.903C30.7007 217.454 31.0854 221.997 31.0854 223.692C31.0854 226.616 29.5011 228.681 28.7032 230.287C27.7143 232.277 25.8143 233.705 25.725 233.883C24.7818 235.777 28.9508 236.779 29.8946 238.673C31.4155 241.734 33.9388 239.998 35.2543 238.673C38.5878 235.324 37.6372 238.927 37.6372 242.269C37.6372 246.181 39.4567 245.886 41.8061 247.066C46.0671 249.207 45.3797 249.173 45.3797 256.653C45.3797 259.302 47.4516 260.819 48.3586 262.651C49.7566 265.465 51.0047 265.176 50.1454 268.642C49.5248 271.133 48.8837 273.165 49.5452 275.834C50.159 278.298 52.1981 279.101 53.719 280.631C55.4716 282.395 59.5908 280.665 60.8661 280.027C61.9573 279.478 61.4594 273.377 61.4594 271.641C61.4594 270.975 66.2197 268.196 66.8198 268.045C67.1131 267.97 68.0133 274.455 68.0133 275.834C68.0133 278.154 64.0851 276.802 65.033 280.631C65.6127 282.964 68.6066 281.029 68.6066 286.025C68.6066 290.527 71.7232 287.082 72.7735 286.025C74.2602 284.522 77.8679 284.357 79.3273 283.623C81.4551 282.553 77.1996 278.641 76.9472 277.632C76.3471 275.237 74.5739 274.091 73.967 271.641C73.094 268.127 78.3044 273.165 78.734 274.036C79.8729 276.335 81.0118 277.605 83.4942 278.229C86.0653 278.874 83.7875 269.822 85.281 275.834C86.3313 280.048 91.753 277.371 93.6217 276.431C95.0538 275.711 96.3837 273.247 98.3887 272.238C98.6001 272.128 103.135 276.129 103.749 276.431C106.532 277.831 102.624 280.487 101.962 281.825C100.073 285.62 133.313 304.218 134.124 303.401C136.539 300.972 138.666 302.584 140.078 303.998C143.72 307.663 144.422 305.247 147.819 302.804C147.969 302.694 142.779 303.353 144.838 299.208C145.895 297.081 145.357 292.771 146.032 291.412C147.103 289.257 147.907 294.205 151.092 293.512C153.622 292.963 152.879 291.323 152.879 288.722C152.879 287.192 155.968 288.619 156.753 288.42C160.872 287.384 158.669 286.389 161.52 287.823C162.093 288.111 161.52 295.839 161.52 296.806C161.52 299.043 160.865 301.233 160.326 303.401C159.937 304.966 156.991 303.278 155.559 303.998C154.386 304.595 153.772 301.473 153.772 307.594C153.772 310.271 150.799 309.488 150.799 313.592C150.799 316.392 148.344 315.39 144.838 315.39C143.045 315.39 145.52 311.272 144.245 309.996C141.783 307.519 139.887 311.355 139.478 312.988C138.585 316.612 162.386 321.017 138.885 318.382C136.095 319.789 137.262 322.308 138.291 324.38C138.857 325.512 206.333 276.863 206.783 254.258C206.837 251.369 208.604 245.302 209.163 245.865C210.418 247.128 216.685 246.469 218.697 246.469C221.807 246.469 224.698 245.858 227.031 245.268C231.429 244.163 227.999 242.811 225.844 242.269C222.216 241.356 221.357 241.96 219.29 239.874C217.353 237.925 219.031 238.337 221.077 236.278C221.138 236.216 218.649 233.739 222.864 232.682C225.612 231.989 225.844 228.002 225.844 225.49C225.844 220.522 228.374 226.396 228.818 227.288C229.684 229.031 232.882 230.829 234.178 231.481C234.198 231.495 237.042 225.717 237.158 225.49C238.147 223.493 238.945 220.947 238.945 218.298C238.945 214.743 234.635 217.282 232.984 217.701C229.875 218.483 228.818 218.106 228.818 214.105C228.818 210.084 229.247 209.981 230.011 206.913C230.147 206.364 234.103 204.072 234.771 202.713C235.501 201.258 231.811 202.116 228.818 202.116C224.801 202.116 227.863 198.458 230.011 197.923C233.155 197.127 235.637 198.589 237.751 199.117C239.156 199.474 238.945 196.379 238.945 194.924C238.945 192.886 242.935 196.619 244.899 196.125C248.268 195.274 245.628 193.497 249.666 195.528C251.671 196.537 255.067 193.703 256.213 193.126C258.859 191.802 259.875 191.205 262.767 191.932C264.983 192.488 266.872 194.856 268.127 196.125C270.425 198.438 269.968 199.405 273.487 198.52C276.754 197.704 279.175 199.206 281.228 199.721C283.39 200.263 283.519 203.146 286.588 203.914C289.507 204.648 291.771 203.873 294.335 204.511C299.225 205.746 297.834 203.173 296.716 200.915C296.375 200.236 299.614 196.448 299.696 196.125C300.166 194.224 297.295 192.598 297.909 190.134C297.957 189.928 308.616 188.926 301.483 187.135C298.796 186.463 295.883 186.593 293.735 187.135C290.38 187.979 293.156 193.14 288.975 188.933C285.967 185.907 290.264 184.562 291.948 184.136C293.824 183.663 298.38 183.656 293.142 182.338C290.298 181.624 288.689 180.856 287.188 179.346C286.165 178.317 284.419 178.495 283.015 178.145C284.01 177.548 284.999 176.944 285.995 176.347C287.427 175.482 287.945 171.392 288.975 170.356C290.544 168.771 292.774 172.806 294.929 173.348C298.441 174.233 296.797 176.862 295.522 178.145C292.794 180.89 298.53 182.338 300.289 182.338C302.274 182.338 303.269 188.569 303.269 182.338C303.269 180.115 305.186 177.548 307.436 177.548C311.023 177.548 310.601 174.693 309.816 171.55C308.95 168.05 306.843 168.942 306.843 172.751C306.843 176.629 304.21 175.75 302.076 175.75C298.359 175.75 297.473 175.208 296.716 172.154C296.122 169.752 301.667 172.847 303.863 173.952C306.147 175.098 302.383 170.212 301.483 169.752C300.344 169.183 304.763 167.659 303.863 166.76C302.246 165.134 297.923 168.846 297.309 169.155C294.076 170.782 292.924 168.448 290.762 167.357C288.075 166.005 288.252 164.626 284.801 163.761C281.282 162.876 280.587 165.744 280.041 167.954C279.509 170.088 284.051 169.313 280.634 172.751C277.975 175.428 276.406 170.891 275.274 169.752C273.603 168.071 270.207 168.558 267.534 168.558C263.885 168.558 265.951 164.736 266.34 163.164C266.783 161.373 263.046 159.246 262.173 158.367C259.588 155.766 259.35 157.146 258.6 160.165C257.768 163.514 256.247 164.358 260.98 164.358C264.976 164.358 262.371 168.352 261.573 169.155C259.05 171.701 256.922 167.735 255.026 171.55C253.457 174.7 250.655 172.353 252.639 176.347C253.58 178.234 250.511 178.646 252.046 181.741C253.246 184.15 254.385 185.166 255.026 187.732C256.24 192.632 253.403 192.145 250.259 193.73C246.501 195.617 246.685 192.776 246.685 189.53C246.685 186.497 247.279 184.569 247.279 181.144C247.279 177.033 246.419 177.178 243.112 176.347C240.036 175.572 236.804 176.828 235.371 177.548C232.234 179.12 233.23 179.168 230.011 177.548C228.061 176.567 228.818 172.525 228.818 169.752C228.818 167.282 224.057 170.953 221.67 171.55C218.52 172.346 215.362 171.07 212.736 169.752V169.752ZM149.53 254.141C150.11 256.303 146.639 257.12 146.837 258.444C146.925 259.179 147.225 259.865 147.532 260.524C147.15 261.663 146.114 262.349 145.323 263.186C144.381 264.003 143.399 264.971 143.174 266.261C142.799 267.97 145.098 274.743 144.538 276.424C144.252 276.987 141.606 272.06 141.203 271.614C140.467 271.023 139.771 270.248 138.782 270.145C137.459 269.829 135.516 270.035 134.206 269.651C133.367 269.143 132.597 267.633 132.488 266.727C132.365 265.794 132.276 264.792 132.651 263.9C133.04 263.427 133.702 263.365 134.268 263.44C134.854 263.33 135.052 262.5 134.677 262.075C134.247 260.949 133.94 258.65 133.968 257.401C134.124 256.248 135.045 255.425 135.898 254.745C136.757 254.1 137.869 253.716 138.455 252.762C138.755 252.337 138.878 251.698 139.444 251.527C140.071 251.506 140.446 252.131 140.671 252.639C141.06 253.448 141.995 255.788 142.117 256.681C141.81 257.188 142.513 257.93 143.011 257.538C144.013 256.873 144.552 255.74 145.432 254.944C146.155 254.491 148.194 253.915 149.53 254.141V254.141Z" fill="url(#paint3_radial_1_84)"/>
<path fill-rule="evenodd" clip-rule="evenodd" d="M98.3865 272.235C98.5989 272.129 103.139 276.129 103.749 276.436C106.53 277.832 102.621 280.49 101.957 281.826C100.072 285.619 105.707 284.825 107.917 284.825C111.601 284.825 109.869 288.965 109.703 289.62C108.999 292.458 108.369 293.52 109.703 296.212C110.977 298.77 109.105 299.925 109.105 303.405C109.105 306.764 106.404 306.397 103.152 306.397C99.455 306.397 98.0613 305.662 95.4064 306.998C94.8954 307.258 92.7317 312.381 92.4331 312.989C91.4309 315.006 88.63 315.8 87.0703 316.588C84.7872 317.737 87.4022 323.254 87.6677 323.781C88.63 325.718 91.2118 326.126 92.4331 328.577C94.0658 331.863 92.0083 333.546 94.2184 335.763C96.11 337.673 95.7582 339.149 98.9838 339.964C101.911 340.698 100.796 339.657 104.34 338.762C106.391 338.247 107.021 342.054 108.515 343.557C109.271 344.325 109.105 348.947 109.703 350.149C111.196 353.154 114.594 348.272 115.656 352.546C116.539 356.079 119.725 353.194 121.019 352.546C123.043 351.531 121.795 357.101 122.804 359.138C123.946 361.436 128.373 361.148 125.187 357.943C123.547 356.286 127.005 353.615 127.57 351.351C127.795 350.456 120.979 349.688 120.421 349.548C116.764 348.633 118.815 345.774 119.831 344.752C121.609 342.962 124.981 347.938 125.187 348.352C125.193 348.359 127.722 344.158 129.952 344.158C134.326 344.158 133.098 341.326 131.147 339.363C127.516 335.709 131.094 336.417 131.147 336.364C132.129 335.375 134.691 337.613 135.315 336.364C137.173 332.617 137.1 339.369 137.1 341.159C137.1 341.887 142.012 340.298 143.054 340.558C147.189 341.6 146.717 340.218 147.222 338.16C147.335 337.713 142.158 334.861 141.866 334.567C139.35 332.036 138.288 332.751 138.288 328.577C138.288 323.882 137.578 323.895 135.315 326.179C133.377 328.129 132.8 325.444 131.147 323.781C129.216 321.838 128.167 329.478 128.167 323.781C128.167 321.337 126.66 318.959 125.784 317.189C124.762 315.132 126.043 310.157 126.381 308.794C127.198 305.508 127.112 308.2 129.952 308.2C131.658 308.2 133.311 304.219 134.12 303.405C136.536 300.967 138.667 302.583 140.08 303.999C143.717 307.666 144.421 305.241 147.819 302.804C147.972 302.697 142.782 303.351 144.839 299.21C145.901 297.08 145.363 292.772 146.034 291.416C147.109 289.259 147.912 294.201 151.098 293.514C153.627 292.966 152.883 291.323 152.883 288.718C152.883 287.196 155.969 288.618 156.753 288.418C160.874 287.383 158.671 286.387 161.518 287.823C162.089 288.111 161.518 295.838 161.518 296.813C161.518 299.044 160.868 301.234 160.33 303.405C159.938 304.968 156.992 303.284 155.565 303.999C154.383 304.594 153.773 301.475 153.773 307.599C153.773 310.27 150.799 309.489 150.799 313.59C150.799 316.395 148.343 315.386 144.839 315.386C143.047 315.386 145.516 311.272 144.248 309.997C141.786 307.519 139.888 311.352 139.483 312.989C138.58 316.608 143.525 316.047 138.886 318.385C136.098 319.787 137.26 322.305 138.288 324.376C138.852 325.518 142.377 327.935 143.651 328.577C144.54 329.017 145.961 333.893 146.631 334.567C147.421 335.369 148.562 333.953 149.604 338.16C150.069 340.037 151.131 338.902 151.987 342.361C153.076 346.736 149.02 345.353 146.631 345.353C143.319 345.353 142.921 347.43 141.866 349.548C140.213 352.867 142.569 354.824 138.288 353.749C135.786 353.114 134.326 349.955 136.503 354.343C137.339 356.033 134.592 357.816 137.1 360.34C139.065 362.317 138.999 363.933 142.456 363.933C146.538 363.933 147.109 363.566 148.416 360.935C149.843 358.07 150.434 357.342 154.37 357.342C161.418 357.342 152.89 358.577 153.773 362.137C154.403 364.655 158.604 363.767 160.33 363.332C162.6 362.765 155.107 358.724 161.518 360.34C164.352 361.048 165.686 360.34 167.471 358.537C169.151 356.854 170.763 353.749 166.881 353.749C164.226 353.749 161.485 354.336 159.135 353.749C156.461 353.074 154.828 352.546 151.396 352.546C146.857 352.546 151.111 349.835 151.987 348.953C152.89 348.045 153.235 346.529 154.37 345.954C155.452 345.414 157.403 346.442 157.947 345.353C158.392 344.458 156.527 343.797 155.565 343.557C153.666 343.083 159.54 344.565 160.921 345.954C162.049 347.083 164.266 346.669 165.686 345.954C166.748 345.42 174.54 349.467 175.814 350.75C177.228 352.172 177.593 350.75 179.385 348.953C180.507 347.825 177.686 344.499 178.197 346.556C178.781 348.906 184.164 347.451 185.345 347.15C187.595 346.589 186.798 344.158 191.298 344.158C194.71 344.158 196.23 343.557 199.634 343.557C202.946 343.557 205.05 341.747 207.38 341.159C209.278 340.685 207.805 346.556 209.763 346.556C211.11 346.556 212.663 341.84 213.333 341.159C216.154 338.321 216.911 340.872 216.911 344.158C216.911 346.242 221.012 343.29 222.864 342.361C225.247 341.159 223.448 336.938 222.864 335.763C221.251 332.517 223.554 332.043 226.435 332.771C228.592 333.312 226.813 327.755 225.247 326.179C223.906 324.83 220.123 324.142 218.696 323.781C216.015 323.107 213.413 323.441 217.501 321.384C220.846 319.701 220.276 315.62 216.911 313.59C215.032 312.454 218.258 308.48 218.696 307.599C219.957 305.054 221.271 304.407 222.864 302.804C224.683 300.974 226.096 300.152 227.63 298.609C229.335 296.893 229.415 294.202 229.415 291.416C229.415 289.046 230.012 286.134 230.012 283.028C230.012 282.487 226.176 285.553 225.247 286.02C222.446 287.429 220.9 287.429 218.099 286.02C215.245 284.584 214.654 283.542 213.931 280.63C212.895 276.456 214.774 275.922 217.501 275.234C219.791 274.66 220.827 280.216 221.079 281.225C221.782 284.063 221.079 277.578 221.079 275.835C221.079 273.371 218.829 271.314 218.099 269.838C217.037 267.701 215.331 266.899 212.736 266.245C209.948 265.543 208.999 264.107 207.971 262.05C206.736 259.553 206.783 257.435 206.783 254.256C200.862 257.235 198.075 257.302 191.292 257.302C189.387 257.302 187.183 248.913 186.798 247.364C185.902 243.764 184.104 239.73 184.104 235.616C184.104 232.437 180.155 228.931 178.715 227.482C175.642 224.389 174.341 223.868 168.839 223.868C164.644 223.868 163.794 228.043 161.657 230.193C158.691 233.179 155.744 231.395 154.469 236.518C153.52 240.351 151.549 242.402 149.983 245.554C148.164 249.214 151.921 249.281 150.879 253.462C149.976 257.108 157.131 257.669 144.368 266.111C141.109 268.268 148.403 275.461 146.837 277.405C144.527 280.283 142.476 278.346 141.003 275.374C139.158 271.661 143.837 272.596 139.656 271.761C135.965 271.02 128.897 266.118 125.738 264.528C121.862 262.578 120.727 261.823 114.966 261.823C109.63 261.823 105.123 263.159 101.041 265.209C99.84 265.817 96.9131 269.19 98.3865 272.235V272.235Z" fill="url(#paint4_linear_1_84)"/>
<path fill-rule="evenodd" clip-rule="evenodd" d="M396.401 162.142C398.399 163.185 400.056 164.928 402.272 165.491C404.666 165.744 405.846 163.171 407.66 162.128C408.479 163.164 406.705 165.415 406.596 166.904C406.398 168.277 405.028 171.557 407.258 171.619C409.079 170.795 410.511 169.237 411.745 167.693C412.42 166.06 414.166 164.379 415.639 166.314C416.799 168.29 418.708 167.096 419.984 165.923C421.225 164.777 422.125 166.04 421.088 167.144C420.024 169.265 418.32 171.255 418.251 173.732C418.142 175.132 420.086 176.773 420.093 177.473C419.036 177.466 416.881 176.086 416.451 176.91C417.753 178.975 419.499 180.76 421.375 182.304C422.357 182.729 425.501 184.445 423.039 184.994C421.777 185.598 419.595 184.253 418.92 185.536C419.356 187.828 420.857 189.736 421.859 191.802C422.316 192.783 423.414 194.499 423.148 195.109C421.893 194.451 419.97 193.758 418.926 195.123C417.719 196.873 418.845 199.234 417.774 201.004C416.158 200.558 415.81 198.218 414.93 196.894C413.437 193.998 413.041 190.436 410.484 188.178C408.213 185.845 406.398 183.107 404.073 180.828C401.522 178.07 401.263 174.179 400.145 170.768C399.129 168.043 397.069 165.772 396.551 162.842C396.496 162.608 396.448 162.375 396.401 162.142V162.142Z" fill="#E5E5E6"/>
<path fill-rule="evenodd" clip-rule="evenodd" d="M272.771 117.514C275.472 118.64 277.388 116.986 279.918 115.716C282.36 114.488 282.135 112.909 285.279 112.12C286.002 111.935 286.39 104.654 286.472 104.324C287.297 100.989 286.268 99.1362 289.446 98.3333C291.737 97.7568 292.767 95.5951 294.213 94.1403C295.543 92.7952 300.221 95.3343 301.953 95.3343C305.861 95.3343 307.266 95.2863 309.1 97.1323C311.16 99.2048 312.681 99.3833 315.654 100.131C319.05 100.989 319.91 102.574 322.201 103.727C324.172 104.716 329.389 103.418 330.542 103.13C334.463 102.142 328.209 97.7637 328.162 97.7362C325.973 96.6314 324.199 95.5471 322.801 94.1403C320.38 91.704 320.414 92.6236 320.414 91.1413C320.414 90.5237 313.676 89.2404 320.414 87.5453C324.179 86.5983 325.461 87.2228 322.801 84.5464C320.537 82.2748 328.066 85.1022 328.162 85.1503C330.931 86.5434 331.797 87.01 333.522 88.7463C335.166 90.4002 328.005 89.0482 326.968 91.1413C326.232 92.6305 330.849 95.0461 331.735 95.9383C334.702 98.9235 329.833 99.9529 335.309 101.332C336.577 101.648 339.633 96.9745 340.069 96.5353C342.736 93.852 343.643 95.0667 343.643 97.7362C343.643 100.063 339.626 101.367 344.243 102.526C347.509 103.35 347.544 104.805 346.623 108.524C345.934 111.283 344.836 112.326 344.836 116.313C344.836 118.784 347.469 119.971 349.603 120.506C352.89 121.337 353.136 121.268 356.15 120.506C358.469 119.923 354.977 125.365 355.557 127.698C356.116 129.942 359.744 131.315 360.917 132.495C363.045 134.636 359.199 136.654 357.937 137.292C354.916 138.809 356.471 141.526 357.344 143.283C358.605 145.822 359.833 146.495 360.917 148.677C362.479 151.827 364.034 152.5 359.724 154.668C358.292 155.389 361.456 158.326 360.324 159.465C357.801 162.004 356.812 160.797 358.537 164.255C358.967 165.127 363.386 163.658 365.684 163.658C367.901 163.658 365.48 168.256 364.491 170.253C363.829 171.585 370.097 170.253 371.045 170.253C373.466 170.253 375.778 173.135 374.618 168.455C373.834 165.305 374.127 163.439 375.212 161.263C375.443 160.797 381.458 165.154 381.765 165.456C383.45 167.151 382.829 160.412 381.765 158.264C380.77 156.274 379.869 153.049 379.378 151.072C378.219 146.413 383.232 150.015 384.145 150.475C387.187 152.006 389.506 150.098 389.506 154.668C389.506 156.782 387.119 158.223 387.119 161.263C387.119 164.104 391.224 162.457 393.673 162.457C396.612 162.457 397.246 164.749 397.246 167.851C397.246 169.979 392.998 169.992 392.479 172.051C392.302 172.779 395.746 176.21 396.053 177.445C396.708 180.06 396.053 183.724 396.053 186.435C396.053 188.961 399.579 189.427 402.013 189.427C404.291 189.427 407.319 190.765 409.161 191.225C410.334 191.52 408.581 194.526 409.754 194.821C414.923 196.125 413.355 194.705 412.734 197.223C412.639 197.601 411.554 203.599 415.394 203.599C418.149 203.599 422.064 205.211 424.048 206.213C425.46 206.92 424.048 212.479 424.048 212.801C424.048 215.347 428.276 215.924 429.409 218.195C430.616 220.625 431.373 222.141 432.389 224.193C433.562 226.554 434.469 228.084 435.962 229.587C438.227 231.859 438.827 228.386 442.509 228.386C445.012 228.386 445.49 232.305 445.49 233.183C445.49 235.331 441.636 233.821 443.703 237.973C444.678 239.936 445.592 242.592 446.083 244.568C446.751 247.265 447.276 248.905 447.276 252.357C447.276 255.788 447.87 257.326 447.87 260.75C447.87 264.223 446.683 265.677 446.683 269.136C446.683 272.643 446.049 274.667 445.49 276.932C444.719 280.034 444.269 281.187 443.11 283.52C441.937 285.874 441.152 287.459 440.129 289.518C438.936 291.913 437.913 294.535 436.719 296.937C435.505 299.38 434.019 300.073 433.05 302.022C432.123 303.895 431.639 308.116 431.195 309.893C430.575 312.398 429.224 314.086 426.428 314.086C425.194 314.086 426.892 306.565 424.048 312.288C422.848 314.711 423.762 318.265 422.855 320.084C422.03 321.738 418.736 323.056 417.494 323.68C415.21 324.826 413.641 325.396 410.947 326.075C410.388 326.212 411.541 322.953 411.541 320.084C411.541 315.884 409.406 317.476 408.56 314.086C408.042 311.993 412.359 309.783 413.327 309.296C415.755 308.068 418.688 309.55 418.688 305.7C418.688 300.45 420.263 303.353 421.388 305.618C421.6 306.043 427.083 302.454 427.083 300.944C427.083 298.638 431.079 297.033 431.898 295.386C433.896 291.371 424.546 289.614 422.855 291.316C420.372 293.814 420.447 293.992 417.494 292.51C414.739 291.124 416.41 289.093 413.327 288.317C413.28 288.303 409.065 292.613 408.56 293.114C406.003 295.688 403.821 294.274 405.587 290.712C407.135 287.597 406.385 287.322 404.393 285.318C401.979 282.889 403.643 280.686 404.987 279.327C406.971 277.337 408.472 276.905 410.947 277.529C412.72 277.975 408.41 280.302 406.774 281.125C403.173 282.937 411.813 284.124 412.734 284.124C415.578 284.124 412.952 277.756 410.947 275.731C408.901 273.672 408.601 272.698 406.18 275.134C405.314 276.006 402.423 275.923 400.82 277.529C397.969 280.398 396.053 276.911 396.053 274.53C396.053 271.627 398.631 270.886 400.82 270.337C402.463 269.925 404.387 270.927 405.587 272.135C407.08 273.638 402.907 268.841 401.413 267.338C399.279 265.19 399.217 264.497 398.44 261.347C397.676 258.28 401.236 257.751 403.8 257.751C406.474 257.751 406.18 261.766 406.18 264.346C406.18 268.663 407.21 266.789 407.967 263.742C408.847 260.215 407.033 258.259 406.18 256.55C405.089 254.354 403.623 253.208 402.607 251.156C401.393 248.72 405.075 245.68 401.413 249.358C398.256 252.536 399.831 250.154 400.82 248.164C401.938 245.906 402.839 244.108 403.8 242.173C404.803 240.155 405.621 237.836 406.18 235.578C406.651 233.684 408.908 231.893 409.754 230.184C410.879 227.926 410.613 224.852 411.541 222.992C413 220.055 411.916 217.976 414.521 220.597C416.362 222.45 416.178 225.291 415.708 227.185C414.903 230.438 415.196 231.543 415.708 232.579C416.751 234.672 417.528 228.256 418.094 225.991C418.674 223.658 418.729 220.446 419.281 218.195C420.304 214.078 418.176 212.781 415.708 213.405C414.364 213.741 415.708 216.198 415.708 217.598C415.708 219.602 411.541 216.102 409.754 217.001C408.083 217.838 407.435 221.668 406.774 222.992C405.512 225.538 406.787 227.844 407.374 230.184C407.797 231.893 406.371 231.763 407.967 234.981C408.758 236.566 402.627 234.995 401.413 233.78C397.874 230.218 400.029 237.582 400.227 237.973C402.852 243.257 397.594 239.517 396.653 238.577C395.037 236.944 393.134 237.431 391.293 235.578C390.583 234.864 387.849 237.493 385.932 237.973C382.379 238.865 383.559 235.022 382.952 232.579C382.406 230.39 379.194 229.807 378.192 227.789C375.88 223.143 375.307 227.57 375.805 229.587C376.61 232.813 377.592 233.78 376.405 236.175C374.693 239.62 376.596 240.924 371.638 242.173C370.322 242.502 368.944 247.018 368.658 248.164C367.894 251.232 368.535 252.446 369.258 255.356C369.531 256.475 367.348 260.03 366.871 261.944C365.957 265.629 367.983 267.434 369.258 269.136C371.113 271.627 371.181 273.37 370.444 276.328C369.906 278.504 374.952 278.73 376.998 278.73C380.899 278.73 382.311 278.682 384.145 280.528C386.655 283.054 383.198 284.783 387.719 285.922C391.388 286.842 391.088 288.104 391.886 291.316C392.125 292.284 389.526 296.669 388.906 297.904C387.944 299.846 388.722 304.664 388.312 306.297C387.501 309.564 387.208 310.737 386.526 313.489C386.335 314.271 388.906 317.696 388.906 320.084C388.906 323.426 388.96 324.174 387.719 326.672C386.43 329.259 386.717 330.673 383.545 331.469C379.215 332.56 382.284 328.621 382.952 327.276C384.261 324.641 384.03 322.946 384.739 320.084C385.278 317.915 379.774 319.082 378.785 317.085C378.758 317.037 375.975 319.995 374.618 320.681C373.002 321.491 371.12 316.564 370.444 315.884C365.05 310.456 366.748 315.761 368.658 317.682C370.676 319.713 370.479 321.745 369.851 324.277C369.271 326.617 364.995 322.987 363.297 321.278C360.474 318.437 360.078 319.727 362.704 317.085C364.729 315.047 367.164 316.454 366.278 312.892C365.773 310.868 362.329 315.191 360.324 314.69C358.53 314.237 355.461 305.082 359.724 293.114C360.399 291.22 364.736 292.915 366.523 292.016C368.589 290.98 369.333 290.973 371.045 290.115C374.461 288.393 370.431 285.545 370.376 285.318C370.213 284.666 366.973 281.825 366.278 281.125C364.232 279.066 365.964 277.563 363.897 281.722C362.752 284.021 361.504 285.325 359.13 285.922C356.089 286.684 356.15 282.642 356.15 279.924C356.15 275.752 355.107 274.674 353.177 272.732C351.629 271.181 349.078 274.064 347.216 274.53C343.213 275.539 343.643 272.293 343.643 269.136C343.643 266.913 344.216 263.646 343.643 261.347C343.336 260.105 340.26 261.944 338.882 261.944C336.768 261.944 341.556 258.657 343.049 257.154C345.279 254.91 350.79 254.135 350.79 250.559C350.79 247.382 350.81 245.138 351.39 243.971C352.427 241.878 346.916 242.619 344.836 241.569C342.272 240.279 342.517 242.043 341.263 244.568C340.124 246.853 336.884 241.96 336.495 241.569C333.331 238.378 335.554 239.771 330.542 239.771C329.962 239.771 327.841 240.656 325.775 238.577C323.401 236.189 325.14 234.391 327.562 233.78C331.081 232.895 331.701 237.246 331.735 237.376C332.294 239.641 333.549 233.053 334.115 230.781C334.252 230.225 329.096 224.447 326.968 226.588C325.557 228.009 327.268 230.788 326.375 232.579C325.331 234.672 323.988 228.324 323.988 225.991C323.988 223.575 320.128 224.145 321.015 220.597C321.396 219.046 323.013 217.269 322.201 214.002C321.881 212.698 327.241 214.51 326.375 211.003C325.822 208.78 324.008 206.824 322.801 205.609C320.53 203.324 319.139 202.953 319.821 200.215C320.258 198.472 324.847 202.549 322.201 197.223C321.144 195.089 319.623 193.222 318.628 191.225C317.25 188.446 316.247 188.604 316.247 185.831C316.247 184.225 319.882 186.373 321.015 185.234C323.313 182.922 322.938 182.523 324.588 185.831C326.62 189.928 326.968 185.632 326.968 182.839C326.968 179.442 328.55 178.351 330.542 176.841C331.333 176.244 332.219 179.346 332.922 178.639C335.036 176.519 335.397 176.244 338.282 176.244C339.339 176.244 340.881 180.629 344.836 178.639C347.366 177.37 344.659 174.343 344.243 172.648C344.14 172.257 338.719 175.428 338.282 175.647C333.945 177.829 335.745 173.568 336.495 172.051C338.18 168.661 334.163 171.591 332.329 172.051C329.648 172.724 328.018 173.245 324.588 173.245C322.01 173.245 320.633 171.502 318.034 170.85C314.815 170.04 313.008 169.217 310.294 167.851C308.214 166.808 306.025 165.436 303.74 164.859C301.36 164.262 300.221 162.478 297.786 161.86C294.192 160.954 297.377 164.447 298.38 165.456C300.957 168.05 295.747 168.455 293.613 168.455C289.364 168.455 292.835 164.948 294.213 164.255C294.308 164.207 290.018 161.236 288.852 160.062C286.268 157.461 286.806 158.697 285.872 162.457C285.415 164.317 281.439 162.327 280.512 166.053C280.102 167.714 277.395 164.674 275.751 164.255C273.665 163.734 274.156 168.05 270.984 164.859C268.693 162.553 268.522 162.155 268.004 160.062C267.37 157.516 273.139 161.263 275.751 161.263C278.138 161.263 275.274 156.219 276.345 154.071C277.095 152.555 275.874 148.169 276.345 146.282C276.597 145.26 279.257 143.544 279.918 140.888C280.437 138.795 279.093 137.018 279.325 136.091C279.591 135.007 281.705 133.477 281.705 129.496C281.705 126.429 277.9 128.302 275.151 128.302C270.8 128.302 274.428 128.638 272.178 124.102C270.964 121.673 271.769 120.033 272.771 117.514Z" fill="url(#paint5_radial_1_84)"/>
<path fill-rule="evenodd" clip-rule="evenodd" d="M447.87 164.255C445.544 159.568 451.375 174.151 452.637 179.243C453.892 184.301 448.224 179.957 447.276 179.243C447.038 179.065 449.111 185.282 449.657 185.831C451.573 187.76 448.818 190.875 447.87 191.829C446.663 193.044 445.046 195.713 444.296 197.223C443.048 199.735 440.238 199.021 437.149 199.021C433.119 199.021 432.703 196.338 430.602 194.224C428.467 192.083 430.125 190.388 427.028 188.83C424.826 187.725 423.107 185.131 422.261 183.436C421.143 181.178 419.745 180.163 418.688 178.042C416.696 174.034 418.258 175.73 420.475 176.841C425.003 179.12 421.586 173.684 421.068 172.648C419.356 169.196 417.563 170.713 419.281 167.254C420.55 164.708 423.25 165.058 419.281 163.061C416.703 161.764 415.708 161.016 415.708 157.667C415.708 155.245 418.006 153.557 419.281 152.273C421.354 150.187 421.3 147.847 422.855 146.282C424.662 144.464 426.981 144.484 430.002 144.484C433.644 144.484 434.435 146.413 436.556 147.476C438.404 148.41 439.516 151.052 440.723 152.273C442.543 154.106 442.762 156.123 444.296 157.667C446.663 160.042 447.263 163.494 450.257 167.254" fill="#504F55"/>
<path fill-rule="evenodd" clip-rule="evenodd" d="M334.709 50.3913C331.838 51.1119 333.27 56.4853 334.115 58.1803C335.52 61.0077 331.878 58.6676 329.948 58.1803C327.289 57.5078 327.03 56.0666 323.395 56.9794C319.419 57.9813 318.027 56.3617 319.821 59.9783C321.492 63.3341 315.954 61.0283 315.054 60.5754C313.192 59.6421 310.887 54.8039 310.887 60.5754C310.887 63.5263 308.418 64.1919 306.12 64.7753C302.335 65.7223 301.953 65.1664 301.953 69.5654C301.953 73.4564 301.244 72.8045 298.38 71.3634C295.945 70.1418 294.117 70.2928 291.232 69.5654C288.593 68.8997 286.8 68.234 284.685 67.1703C282.148 65.8939 282.51 64.3772 279.325 63.5743C276.836 62.9498 275.158 61.4812 273.365 60.5754C271.012 59.395 269.62 58.6058 267.411 56.3823C264.765 53.7196 264.124 53.0951 266.217 50.9883C269.211 47.9757 265.651 49.1835 263.244 49.7874C261.034 50.3433 259.827 52.1481 257.283 52.7863C253.88 53.6442 253.273 52.8275 252.523 49.7874C251.678 46.4041 255.149 46.6169 250.736 44.3948C248.261 43.1499 243.746 43.386 240.609 42.5974C237.506 41.8165 236.162 40.8791 233.462 40.1997C230.679 39.4997 228.367 39.534 225.721 40.1997C223.198 40.8351 221.643 42.5741 219.168 43.1966C216.828 43.786 214.987 45.2993 213.214 46.1914C210.615 47.5021 207.71 46.4247 206.067 45.5943C203.196 44.1491 201.395 45.8483 199.513 46.7953C195.721 48.7031 197.071 47.4541 198.92 45.5943C200.897 43.6008 201.463 43.4546 204.873 42.5974C209.558 41.4191 202.459 41.3986 200.706 41.3986C196.983 41.3986 196.267 42.5151 193.559 43.1966C189.604 44.1916 190.252 44.2287 188.199 43.1966C186.514 42.3497 198.374 40.608 188.792 39.0015C185.246 38.4058 188.226 35.3787 189.392 34.2066C190.231 33.3563 183.882 33.6075 182.245 33.6075C177.58 33.6075 177.403 32.9322 176.285 31.8095C176.019 31.5411 183.582 30.6106 184.625 30.6106C187.237 30.6106 189.774 29.3156 191.772 28.8126C195.469 27.882 192.147 31.8095 197.133 31.8095C198.101 31.8095 200.154 28.0529 201.9 27.6144C203.918 27.1045 204.976 28.3377 207.853 27.6144C211.093 26.7998 212.518 28.2622 215.001 27.0146C216.842 26.0881 217.776 23.8194 219.761 22.8195C223.034 21.1752 221.261 26.4608 221.548 27.6144C221.766 28.4756 225.592 29.483 226.315 32.4086C226.833 34.4962 230.195 29.4899 232.268 30.0115C234.314 30.5262 234.703 31.4972 238.229 30.6106C240.541 30.0286 243.739 29.9737 245.969 29.4124C248.95 28.6623 247.408 25.4698 250.736 28.8126C253.178 31.2687 250.348 32.8121 254.31 34.8057C256.554 35.9346 259.493 36.1109 261.457 36.6037C263.953 37.2323 265.433 38.6041 267.411 39.6006C269.505 40.6526 270.077 42.7402 272.178 43.7957C276.488 45.9649 273.562 40.9998 272.771 40.1997C269.702 37.1142 274.776 36.3985 276.345 36.0046C278.868 35.3698 285.381 40.8509 287.659 41.9977C289.943 43.1465 292.221 39.2087 293.019 38.4017C294.158 37.2542 299.75 39.3466 300.76 39.6006C304.347 40.5023 306.277 41.4088 305.527 38.4017C304.947 36.0601 311.494 39.0564 312.081 41.3986C312.347 42.4774 318.853 41.9977 320.414 41.9977C321.485 41.9977 324.888 45.1483 325.775 45.5943C328.639 47.0355 329.294 47.4541 331.135 45.5943C334.402 42.3113 334.709 49.5541 334.709 50.3913V50.3913Z" fill="url(#paint6_radial_1_84)"/>
<path fill-rule="evenodd" clip-rule="evenodd" d="M23.8175 238.872C20.3735 240.142 19.3928 244.376 19.5456 247.697C19.7352 250.662 19.3949 253.936 21.3296 256.434C22.695 258.616 26.1383 260.208 28.1972 258.053C30.5425 255.047 29.6396 250.992 29.7351 247.464C29.8967 243.724 27.8391 239.442 23.8175 238.872V238.872Z" fill="#4F4F4F"/>
<path fill-rule="evenodd" clip-rule="evenodd" d="M233.164 52.3359C233.164 54.2391 230.23 55.782 226.612 55.782C222.994 55.782 220.061 54.2391 220.061 52.3359C220.061 50.4327 222.994 48.8899 226.612 48.8899C230.231 48.8899 233.164 50.4327 233.164 52.3359Z" fill="#4D4D53"/>
<path fill-rule="evenodd" clip-rule="evenodd" d="M241.802 228.983C243.228 226.924 244.626 224.207 245.376 221.194C246.276 217.55 248.643 219.389 249.543 221.194C250.907 223.946 251.077 225.003 254.31 224.193C258.3 223.184 252.694 219.78 251.923 219.396C248.704 217.777 249.638 216.301 251.33 214.599C253.744 212.17 254.774 213.275 256.69 215.203C257.549 216.061 258.627 220.899 259.07 221.791C260.127 223.919 260.912 217.708 260.264 216.397C258.497 212.849 263.701 213.069 265.031 213.405C269.082 214.421 265.951 221.729 265.624 222.395C264.165 225.332 263.592 225.497 265.031 228.386C266.306 230.96 267.534 231.481 266.817 234.377C266.667 234.974 259.739 234.981 258.477 234.981C258.047 234.981 254.044 238.838 253.71 239.174C251.568 241.336 252.094 242.578 248.95 243.367C246.106 244.081 244.735 240.958 242.396 240.375C240.063 239.785 239.415 236.848 239.415 234.377C239.415 232.051 240.261 231.564 241.802 228.983Z" fill="#5D5C63"/>
<path fill-rule="evenodd" clip-rule="evenodd" d="M369.851 103.13C370.956 104.242 374.516 103.027 376.405 104.928C379.385 107.934 373.977 110.027 372.831 110.322C369.428 111.173 369.51 109.636 368.064 106.726C367.451 105.484 362.261 105.079 365.684 108.524C368.644 111.503 366.039 110.919 362.111 110.919C361.538 110.919 365.084 114.508 365.684 115.112C366.175 115.613 359.308 115.503 358.537 115.112C355.85 113.767 355.079 113.191 354.363 110.322C353.511 106.891 357.269 106.685 352.577 104.324C352.481 104.276 353.013 108.36 350.196 105.525C347.182 102.492 351.806 100.728 347.216 100.728C343.738 100.728 345.491 102.863 342.456 101.332C341.01 100.605 346.521 96.6382 346.623 96.5353C347.353 95.801 353.102 95.0735 353.77 94.7373C355.843 93.6942 350.756 91.004 350.196 88.7462C349.903 87.5659 352.597 88.4374 353.77 88.1423C355.168 87.7923 355.891 88.4855 357.937 90.5442C359.41 92.0197 359.717 85.1365 364.491 89.9403C365.623 91.0795 362.765 93.5981 363.897 94.7373C365.596 96.4461 366.966 96.6657 362.704 97.7362C360.699 98.2372 369.312 102.911 369.851 103.13V103.13Z" fill="#5F5E64"/>
<path fill-rule="evenodd" clip-rule="evenodd" d="M455.617 202.617C457.486 200.73 455.699 208.519 453.83 210.406C451.866 212.376 454.369 216.287 455.017 217.598C456.285 220.151 455.242 223.136 454.424 224.79C453.23 227.192 452.528 230.019 452.043 231.982C451.361 234.707 450.257 235.249 450.257 239.174C450.257 241.411 455.017 239.49 455.017 243.367C455.017 247.128 457.997 243.559 457.997 240.375C457.997 238.076 455.017 236.278 455.017 232.579V223.589C455.017 222.059 460.316 227.062 457.404 221.194C455.835 218.044 460.077 222.985 460.377 223.589C461.537 225.922 459.784 218.408 459.784 215.8C459.784 214.421 462.341 212.925 461.571 209.809C461.482 209.445 455.883 202.953 455.617 202.617Z" fill="#5F5E64"/>
<path fill-rule="evenodd" clip-rule="evenodd" d="M403.8 305.096C403.8 302.42 401.413 309.893 400.227 312.288C398.76 315.232 400.479 315.198 403.2 315.884C406.712 316.769 406.869 317.504 405.587 320.084C404.509 322.246 402.934 323.618 402.013 325.478C400.759 327.997 398.351 328.196 397.246 328.47C395.091 329.012 399.231 324.476 400.227 322.479C401.679 319.556 399.32 317.064 398.44 315.287C397.199 312.782 397.049 310.689 397.84 307.498C399.347 301.432 403.923 305.302 402.013 302.104C401.413 301.102 403.8 303.936 403.8 305.096Z" fill="#69686F"/>
<path fill-rule="evenodd" clip-rule="evenodd" d="M394.866 80.9504C394.634 80.5661 389.39 77.8965 388.312 77.3544C387.269 76.8328 385.516 72.1457 384.739 71.3633C382.734 69.3457 380.64 68.1036 378.785 67.1703C376.35 65.9419 376.385 64.1645 374.018 62.9773C369.387 60.644 370.397 65.2762 371.045 66.5664C371.624 67.7468 376.187 69.1604 376.998 69.5653C380.047 71.1026 380.258 71.679 378.192 73.7584C375.887 76.0779 378.867 79.3239 379.378 80.3533C380.756 83.1258 381.029 83.8121 382.952 85.7473C386.116 88.9315 386.273 85.8434 385.332 83.9493C384.186 81.6298 382.318 81.4719 381.165 79.1524C379.187 75.1652 382.475 75.5907 384.739 76.1603C385.987 76.476 388.749 79.5916 389.506 80.3533C391.047 81.9043 392.466 81.4376 394.866 80.9504Z" fill="#5F5E64"/>
<path fill-rule="evenodd" clip-rule="evenodd" d="M401.413 80.0514C399.067 76.6338 394.02 70.9516 396.053 79.1524C396.298 80.1406 400.424 79.8524 401.413 80.0514Z" fill="#5F5E64"/>
<path fill-rule="evenodd" clip-rule="evenodd" d="M100.053 386.006C99.4117 383.419 94.6788 385.402 92.3123 384.208C88.8751 382.479 90.0276 386.994 90.5255 389.005C91.3439 392.313 98.1023 391.4 98.8593 391.4C101.955 391.4 101.151 388.772 100.053 386.006Z" fill="#56555B"/>
<path fill-rule="evenodd" clip-rule="evenodd" d="M100.646 373.42C104.083 373.42 103.626 367.985 103.626 364.43C103.626 360.937 101.396 361.459 100.646 358.439C99.8004 355.021 107.009 358.851 107.2 359.036C108.612 360.457 111.217 357.952 113.154 358.439C115.09 358.926 111.667 362.632 112.56 364.43C113.338 365.988 120.13 363.277 120.301 363.229C123.533 362.419 119.653 366.88 119.107 367.429C116.939 369.611 119.237 371.279 120.301 373.42C122.088 377.009 119.673 377.627 117.32 378.217C115.977 378.553 113.59 373.701 113.154 372.823C112.097 370.682 109.751 369.996 108.393 368.623C106.354 366.578 105.775 369.694 104.82 371.622C104.138 372.981 102.051 372.857 100.646 373.42V373.42Z" fill="#6B6A71"/>
<path fill-rule="evenodd" clip-rule="evenodd" d="M129.828 368.623C128.259 371.787 134.159 372.864 136.382 373.42C138.701 374.003 136.368 368.561 135.789 366.228C134.384 360.58 131.826 369.028 129.828 368.623Z" fill="#6B6A71"/>
<path fill-rule="evenodd" clip-rule="evenodd" d="M148.889 366.228C148.166 363.318 153.37 370.284 156.037 371.622C158.11 372.665 154.904 368.054 153.656 367.429C151.576 366.386 151.972 366.228 148.889 366.228Z" fill="#6B6A71"/>
<path fill-rule="evenodd" clip-rule="evenodd" d="M154.843 378.814C151.133 376.947 149.646 377.668 150.676 381.813C151.399 384.723 156.173 382.074 157.23 381.813C159.467 381.243 161.677 384.647 163.184 385.409C165.577 386.61 169.178 384.187 170.331 383.611C172.254 382.643 167.344 382.108 165.564 381.209C162.727 379.782 161.724 378.814 158.417 378.814H154.843Z" fill="#6B6A71"/>
<path fill-rule="evenodd" clip-rule="evenodd" d="M109.58 393.795C106.17 393.795 106.006 391.517 106.006 397.995C106.006 401.536 108.714 402.675 109.58 399.189C109.88 397.974 109.58 394.639 109.58 393.795Z" fill="#6B6A71"/>
<path fill-rule="evenodd" clip-rule="evenodd" d="M75.0377 356.641C75.4673 354.905 70.2706 357.252 70.2706 359.036C70.2706 360.36 74.8467 362.234 75.631 362.632C77.4178 363.531 75.4264 358.611 75.0377 356.641Z" fill="#6B6A71"/>
<path fill-rule="evenodd" clip-rule="evenodd" d="M75.0377 372.219C77.3496 373.386 72.0233 367.957 70.8708 365.631C68.4157 360.697 67.5564 367.285 67.8905 368.623C68.668 371.746 67.9451 371.759 66.1037 372.219C63.2121 372.947 72.4871 373.763 75.0377 372.219C76.9404 371.073 74.0761 378.272 76.2311 378.814C79.7979 379.713 78.5635 374.25 75.0377 372.219V372.219Z" fill="#6B6A71"/>
<path fill-rule="evenodd" clip-rule="evenodd" d="M81.5915 327.873C82.8191 328.182 78.8977 329.63 79.2046 330.872C79.5251 332.142 84.3945 333.48 85.1651 333.864C86.1199 334.351 86.795 340.425 86.9519 341.056C87.4156 342.936 89.9253 347.068 89.9253 342.257C89.9253 338.654 88.6227 337.837 87.5452 335.662C86.0244 332.601 85.3629 330.913 81.5915 327.873V327.873Z" fill="#6B6A71"/>
<path fill-rule="evenodd" clip-rule="evenodd" d="M32.7515 293.114C31.7585 291.117 33.576 298.563 35.729 299.105C39.8768 300.148 32.7146 292.929 32.1554 290.115C31.6146 287.398 29.257 286.08 27.9865 283.52C25.8853 279.293 21.7818 283.273 26.7957 288.317C28.766 290.3 30.0392 290.932 32.7515 293.114V293.114Z" fill="#6B6A71"/>
<path fill-rule="evenodd" clip-rule="evenodd" d="M66.697 285.922C68.0337 287.26 64.0714 289.621 64.9102 291.316C66.3219 294.15 66.2878 295.324 64.3169 297.307C63.178 298.453 66.6084 303.058 67.8905 297.904C68.7634 294.404 68.818 293.841 71.4641 292.51C71.9483 292.27 67.9178 287.96 66.697 285.922Z" fill="#6B6A71"/>
<path fill-rule="evenodd" clip-rule="evenodd" d="M13.9902 231.385C9.90169 235.091 12.9577 238.742 13.3948 239.62C13.8913 240.622 15.8861 238.467 16.6704 237.678C17.5051 236.834 16.1725 233.979 16.075 233.78C15.438 232.497 15.9652 232.174 13.9902 231.385Z" fill="#56555B"/>
<path fill-rule="evenodd" clip-rule="evenodd" d="M282.298 87.5453C280.914 89.9403 282.264 93.8452 278.725 94.7373C277.552 95.0324 272.764 92.6373 272.178 92.3422C269.32 90.9011 270.657 88.9727 266.818 89.9403C264.983 90.407 265.358 96.4118 265.031 97.7362C264.444 100.076 264.465 103.254 265.031 105.525C265.454 107.248 268.222 109.341 269.198 110.322C271.209 112.34 272.178 113.932 272.771 116.313C273.324 118.544 273.542 122.428 273.965 124.102C274.053 124.48 271.312 129.441 270.984 130.1C269.225 133.641 266.088 129.366 265.031 128.302C263.264 126.525 261.764 125.379 259.07 124.706C256.813 124.137 255.578 121.728 253.117 121.11C249.645 120.232 248.322 122.435 247.756 124.706C246.849 128.357 249.938 128.693 251.33 130.1C253.744 132.53 253.307 133.497 251.33 135.494C249.522 137.313 245.751 132.873 245.376 132.495C243.944 131.054 243.398 127.54 242.989 125.9C242.471 123.807 239.15 123.835 237.629 122.304C235.528 120.191 237.779 116.018 238.229 115.112C239.845 111.859 248.418 114.515 251.33 114.515C253.437 114.515 253.614 110.672 255.497 109.718C259.343 107.79 257.331 109.121 253.117 109.121C250.893 109.121 248.493 111.036 246.563 111.516C242.641 112.505 244.878 107.124 245.376 106.122C247.02 102.821 246.651 102.012 244.776 100.131C243.235 98.5803 240.343 100.667 238.229 100.131C236.306 99.6509 234.533 97.0088 233.462 95.9382C231.477 93.9412 229.725 93.3716 228.101 91.7383C225.605 89.2266 230.1 87.4424 231.082 86.9482C233.264 85.8502 236.019 85.7473 238.822 85.7473C242.471 85.7473 242.989 84.4503 242.989 80.9504C242.989 77.6769 240.691 77.3544 245.969 77.3544C248.329 77.3544 249.829 79.6808 252.523 80.3533C253.321 80.5523 257.331 78.5553 259.67 78.5553C262.787 78.5553 264.956 78.2534 265.624 75.5564C266.893 70.4506 269.716 78.2396 269.791 78.5553C270.834 82.7483 269.852 82.8101 272.178 85.1503C274.401 87.3875 276.058 82.0964 276.345 80.9504C277.163 77.6632 281.562 83.9767 281.705 84.5463C281.951 85.5346 282.101 86.5502 282.298 87.5453V87.5453ZM246.883 118.708C246.883 120.362 245.144 121.707 242.989 121.707C240.841 121.707 239.095 120.362 239.095 118.708C239.095 117.054 240.841 115.716 242.989 115.716C245.144 115.716 246.883 117.054 246.883 118.708ZM263.244 104.475C263.244 106.376 262.044 107.92 260.564 107.92C259.084 107.92 257.884 106.376 257.884 104.475C257.884 102.574 259.084 101.03 260.564 101.03C262.044 101.03 263.244 102.574 263.244 104.475Z" fill="#A8A7AA"/>
<path fill-rule="evenodd" clip-rule="evenodd" d="M301.947 57.4709C301.351 60.2148 297.553 61.7105 293.462 60.8117C289.372 59.9129 286.539 56.9599 287.135 54.216C287.73 51.4721 291.529 49.9763 295.619 50.8752C299.709 51.774 302.542 54.727 301.947 57.4709Z" fill="#959595" stroke="#B9B9B9" stroke-width="1.98696"/>
<path fill-rule="evenodd" clip-rule="evenodd" d="M355.419 120.344C352.696 122.047 348.331 120.171 345.669 116.153C343.007 112.135 343.056 107.497 345.779 105.794C348.502 104.09 352.867 105.966 355.529 109.984C358.191 114.002 358.142 118.64 355.419 120.344Z" fill="#A7A7A7" stroke="#CACACA" stroke-width="1.73248"/>
<path fill-rule="evenodd" clip-rule="evenodd" d="M301.497 76.8611C300.299 78.6057 297.346 78.5774 294.903 76.7979C292.459 75.0183 291.45 72.1615 292.649 70.4168C293.847 68.6722 296.8 68.7005 299.243 70.48C301.687 72.2595 302.696 75.1164 301.497 76.8611Z" fill="#959595" stroke="#B9B9B9" stroke-width="2.69447"/>
<path fill-rule="evenodd" clip-rule="evenodd" d="M441.302 282.343C439.001 281.255 438.372 276.68 439.896 272.125C441.42 267.569 444.521 264.758 446.822 265.846C449.122 266.934 449.752 271.509 448.227 276.064C446.703 280.62 443.603 283.431 441.302 282.343Z" fill="#CACACA"/>
<path fill-rule="evenodd" clip-rule="evenodd" d="M423.217 327.128C421.118 325.685 421.222 321.067 423.449 316.815C425.676 312.563 429.182 310.286 431.281 311.729C433.38 313.172 433.276 317.79 431.049 322.042C428.822 326.294 425.316 328.571 423.217 327.128Z" fill="#CDCDCD"/>
<path fill-rule="evenodd" clip-rule="evenodd" d="M291.177 177.894C291.177 179.533 289.857 180.861 288.229 180.861C286.6 180.861 285.281 179.533 285.281 177.894C285.281 176.256 286.6 174.928 288.229 174.928C289.857 174.928 291.177 176.256 291.177 177.894Z" fill="#E7E6E8" stroke="#A9A9A9" stroke-width="2.38133"/>
<path fill-rule="evenodd" clip-rule="evenodd" d="M294.608 303.175C294.063 303.971 293.333 304.602 292.665 305.288C291.737 306.242 290.762 307.189 290.121 308.37C289.821 308.932 289.602 309.708 290.025 310.271C290.455 310.723 291.164 310.675 291.723 310.566C293.456 310.188 294.963 308.733 295.242 306.949C295.508 305.384 294.963 302.797 294.608 303.175Z" fill="#ECECED"/>
<path fill-rule="evenodd" clip-rule="evenodd" d="M319.828 347.836C323.033 346.217 324.977 344.638 327.405 347.836C329.417 351.878 321.71 353.079 318.982 353.766C315.3 354.692 312.913 356.394 309.721 358.007C305.8 359.976 311.283 354.678 313.09 353.766C316.111 352.242 316.616 349.449 319.828 347.836Z" fill="url(#paint7_radial_1_84)"/>
<path fill-rule="evenodd" clip-rule="evenodd" d="M349.726 245.7C352.154 244.493 352.768 251.746 349.317 253.743C346.241 257.154 340.014 257.154 338.807 262.294C337.382 266.13 335.895 270.728 339.489 273.94C341.29 277.845 345.539 277.879 349.214 278.298C354.234 277.358 355.325 282.868 357.848 285.963C361.538 286.19 365.159 274.866 369.94 282.058C373.145 284.378 372.436 291.275 369.074 292.448C365.991 293.958 361.715 291.199 360.433 294.823C360.556 298.069 357.548 303.312 357.65 308.047C360.344 311.101 358.864 308.781 359.13 313.317C360.535 316.364 363.618 320.338 360.112 321.45C356.443 323.515 355.55 329.458 352.004 331.716C349.023 334.887 344.993 336.733 341.972 339.848C339.585 341.633 334.109 344.611 332.131 342.298C334.463 339.025 337.791 336.582 340.717 333.857C343.943 332.018 346.398 329.17 349.583 327.297C352.563 325.739 355.427 321.319 353.061 318.204C350.462 315.596 345.211 315.26 344.822 310.806C343.254 306.249 348.41 303.477 348.041 299.098C348.226 296.875 346.043 289.841 344.679 295.166C344.4 297.877 341.106 299.627 340.608 295.948C338.746 291.851 339.776 286.251 336.257 283.053C332.697 282.463 328.96 283.829 325.331 284.001C320.639 285.188 319.071 290.191 316.759 293.841C312.265 296.538 312.435 287.706 312.722 284.941C313.083 281.846 311.944 273.947 317.345 276.795C320.51 278.305 326.907 283.129 327.568 276.548C329.239 271.998 326.491 267.887 321.758 267.475C316.834 266.13 321.867 260.373 323.354 257.923C326.116 255.596 326.409 251.149 329.648 249.427C333.583 248.631 337.362 250.889 341.235 250.662C343.895 249.859 347.059 246.49 349.726 245.7V245.7Z" fill="#ECECED"/>
<path fill-rule="evenodd" clip-rule="evenodd" d="M305.213 225.387C303.699 223.411 297.125 220.192 295.87 220.048C294.124 219.931 292.371 219.787 290.653 219.424C290.073 220.302 290.673 221.558 290.782 222.546C291.246 224.715 291.519 232.497 290.939 234.212C290.359 235.757 289.875 237.383 289.943 239.051C290.571 240.368 295.454 244.232 296.906 244.952C298.161 245.213 298.7 243.724 299.137 242.818C299.866 241.288 303.876 238.234 304.817 237.561C306.57 236.559 306.802 234.281 306.693 232.456C306.604 230.918 305.561 226.039 305.213 225.387Z" fill="#ECECED"/>
<path fill-rule="evenodd" clip-rule="evenodd" d="M291.607 266.041C292.999 266.309 292.951 268.182 292.644 269.273C292.099 271.476 285.933 274.414 285.47 275.402C284.426 278.202 284.01 281.194 283.969 284.172C283.881 285.84 277.797 288.66 276.897 287.377C276.618 285.853 280.887 277.721 281.085 274.681C281.453 271.689 280.157 268.869 279.652 265.979C279.339 262.562 280.948 259.35 282.524 256.44C283.847 255.404 289.943 263.282 291.607 266.041V266.041Z" fill="#ECECED"/>
<path fill-rule="evenodd" clip-rule="evenodd" d="M276.447 307.574C276.863 307.1 276.549 306.379 275.901 306.668C274.285 307.079 272.792 307.875 271.23 308.445C269.648 309.015 267.99 309.673 266.279 309.502C265.399 309.358 264.669 308.802 263.892 308.404C262.651 307.69 261.403 306.743 260.966 305.309C260.727 304.499 260.475 303.676 260.38 302.838C260.584 302.083 261.478 302.838 261.894 303.072C264.042 304.506 265.985 306.304 268.4 307.292C269.45 307.745 270.609 307.525 271.714 307.574H276.447V307.574Z" fill="#ECECED"/>
<path fill-rule="evenodd" clip-rule="evenodd" d="M201.484 385.546C197.549 380.591 192.352 372.13 187.169 366.482C180.636 359.962 176.012 351.954 172.138 343.643C167.978 337.687 164.664 326.514 159.862 323.543C160.313 328.01 154.093 330.728 161.322 332.807C168.837 336.122 165.577 346.121 172.084 350.122C175.582 357.485 180.097 364.437 185.021 370.97C188.431 375.094 197.951 382.266 197.228 385.251C194.016 377.181 184.557 372.796 176.4 372.507C169.99 375.534 182.886 378.862 186.023 377.627C190.149 377.613 198.517 385.224 190.013 381.683C185.096 385.457 179.913 377.194 175.821 380.694C177.192 383.254 188.301 384.393 185.471 385.786C182.075 385.882 173.72 379.988 174.129 385.992C178.31 388.559 185.021 386.761 188.11 389.966C185.716 393.665 182.122 393.171 179.033 395.154C178.201 401.563 191.179 395.579 184.393 401.09C176.987 408.378 192.598 401.049 191.834 401.461C187.578 406.518 193.757 404.995 195.619 404.796C192.441 411.727 187.64 417.581 183.8 424.114C179.251 429.721 175.732 436.192 170.324 441.065C167.821 446.472 175.18 438.855 176.53 437.421C183.991 432.857 188.533 424.903 193.061 417.759C195.448 413.628 198.538 408.165 201.136 405.146C205.316 411.123 200.781 418.514 202.329 425.809C208.399 430.167 200.761 437.867 203.959 441.799C214.544 442.314 210.663 430.647 210.336 424.299C209.272 420.237 213.193 416.62 214.585 422.124C214.162 425.864 216.985 428.732 216.978 423.4C216.842 419.825 217.381 417.766 218.417 422.611C219.399 425.329 225.476 435.451 224.228 426.653C224.296 422.144 217.142 415.213 222.625 412.098C227.488 414.856 231.327 418.308 226.772 423.579C221.943 425.953 230.87 433.722 233.25 428.513C237.861 429.364 239.395 425.521 240.929 422.735C246.392 427.573 256.39 422.549 259.568 417.917C257.017 418.26 249.918 414.891 256.656 416.064C259.486 417.217 266.852 418.583 261.089 414.493C261.846 410.917 270.896 415.289 274.544 414.795C274.36 410.052 264.628 412.276 267.527 405.228C265.699 401.028 258.613 413.305 259.309 404.672C256.881 399.299 254.433 407.054 255.742 409.462C250.982 406.868 251.268 417.498 250.225 410.553C251.65 407.04 255.435 400.548 252.578 397.46C249.611 400.898 243.091 400.294 240.07 398.839C247.483 398.736 254.705 396.767 261.764 399.512C267.8 399.443 270.398 395.092 273.944 391.558C278.588 391.887 271.939 379.871 270.316 386.651C268.236 394.179 262.057 391.668 257.079 389.362C255.197 391.023 247.101 392.917 247.845 391.077C253.792 389.06 262.132 389.78 266.211 385.69C265.065 383.762 270.077 379.885 266.647 380.324C270.241 375.63 273.099 384.99 276.447 378.347C284.467 375.781 293.367 375.067 300.855 371.396C305.104 367.642 316.609 365.988 316.5 360.649C309.08 361.246 303.058 370.092 294.526 369.742C286.984 373.674 278.827 377.242 270.132 377.071C267.22 377.263 258.907 377.352 266.34 375.376C272.519 374.964 281.507 376.055 285.101 369.879C282.721 364.849 271.237 375.836 269.825 370.14C275.356 365.247 281.221 360.978 286.861 356.38C291.178 353.381 300.61 349.394 293.217 344.378C297.016 338.887 314.761 340.535 309.728 330.282C301.23 323.351 300.548 338.647 293.783 339.032C290.796 336.218 282.046 340.027 284.801 333.631C279.243 331.696 271.305 342.456 281.501 341.475C281.432 345.297 285.633 352.427 288.655 349.051C286.963 342.806 295.652 346.697 290.346 350.375C286.595 353.107 282.312 358.46 277.729 354.987C272.478 357.368 272.382 353.045 275.506 350.266C270.637 347.665 264.956 352.091 265.201 343.554C261.15 343.074 253.062 344.645 259.602 338.936C266.511 334.111 267.588 325.492 273.146 319.576C276.768 317.716 279.161 310.346 272.853 314.203C268.938 319.151 268.597 330.872 261.928 331.517C262.262 324.243 255.981 336.856 258.415 329.047C260.134 325.773 258.77 322.088 257.365 327.393C258.422 332.999 248.158 338.03 252.332 342.195C256.738 341.948 248.704 354.555 247.811 345.29C246.897 342.593 247.415 335.703 243.603 341.049C242.389 347.946 236.122 343.499 238.754 338.236C237.458 333.24 242.778 327.592 242.123 323.961C235.917 329.788 237.472 317.744 232.541 319.473C230.741 325.979 242.348 327.324 237.799 334.866C236.047 343.726 235.085 327.88 230.85 334.509C224.903 335.683 227.242 346.711 219.331 344.57C217.824 337.879 213.698 341.44 213.528 346.251C209.136 346.663 208.153 339.951 203.168 344.021C199.792 343.019 197.685 340.253 196.43 345.716C193.184 346.924 187.08 340.953 187.442 348.598C187.53 354.232 195.414 351.563 194.794 357.959C198.654 360.251 195.748 358.796 194.882 360.532C199.145 363.126 205.562 368.369 201.688 373.633C196.451 367.896 189.726 363.593 186.746 355.886C181.413 349.881 180.574 341.365 176.094 334.804C167.419 329.966 172.902 320.976 169.901 313.51C165.271 306.53 159.665 317.531 165.993 320.42C169.601 327.077 172.963 333.397 176.216 340.205C178.18 347.967 182.852 354.445 186.739 361.266C191.131 366.743 197.474 370.936 200.399 377.476C193.996 373.454 190.804 366.207 185.062 361.397C184.305 359.661 178.869 351.178 179.381 355.632C183.834 362.831 190.265 368.39 195.094 375.3C196.226 379.13 201.804 381.47 201.484 385.546V385.546Z" fill="url(#paint8_radial_1_84)"/>
<path fill-rule="evenodd" clip-rule="evenodd" d="M334.34 84.4709C334.988 89.2953 331.994 93.6805 333.167 98.4774C333.195 103.288 334.429 108.771 330.774 112.635C328.223 116.409 327.705 120.952 326.559 125.248C325.42 128.542 323.886 131.665 323.272 135.13C321.444 138.898 321.574 143.201 320.326 147.154C319.678 150.64 319.603 154.208 319.419 157.743C320.332 160.007 321.192 154.311 321.744 153.33C322.774 149.13 325.318 145.466 326.068 141.218C325.891 136.853 329.314 133.504 329.73 129.208C330.855 125.667 332.785 122.455 333.808 118.873C335.438 114.687 335.009 110 335.854 105.621C336.707 101.243 337.13 96.851 337.362 92.4177C338.173 87.7649 338.596 83.0709 339.203 78.3837C340.478 73.8339 340.083 69.0232 341.556 64.5351C341.801 62.9567 344.12 56.4578 341.699 60.5273C339.789 64.6243 338.664 69.0781 337.362 73.4084C336.986 74.5682 333.195 79.1661 334.34 84.4709V84.4709Z" fill="#E3E3E3" fill-opacity="0.44643"/>
<path fill-rule="evenodd" clip-rule="evenodd" d="M207.059 349.992C207.059 352.742 204.278 354.971 200.847 354.971C197.417 354.971 194.635 352.742 194.635 349.992C194.635 347.242 197.417 345.012 200.847 345.012C204.278 345.012 207.059 347.242 207.059 349.992Z" fill="#54535A"/>
<path fill-rule="evenodd" clip-rule="evenodd" d="M326.974 232.139C326.974 233.777 325.654 235.105 324.026 235.105C322.398 235.105 321.078 233.777 321.078 232.139C321.078 230.501 322.398 229.172 324.026 229.172C325.654 229.172 326.974 230.501 326.974 232.139Z" fill="#E7E6E8" stroke="#A9A9A9" stroke-width="2.38133"/>
<path fill-rule="evenodd" clip-rule="evenodd" d="M343.99 176.199C343.99 177.837 342.97 179.166 341.711 179.166C340.453 179.166 339.433 177.837 339.433 176.199C339.433 174.561 340.453 173.233 341.711 173.233C342.97 173.233 343.99 174.561 343.99 176.199Z" fill="#E7E6E8" stroke="#A9A9A9" stroke-width="2.38132"/>
<path opacity="0.65803" fill-rule="evenodd" clip-rule="evenodd" d="M213.678 132.336C213.645 134.457 211.174 136.084 208.16 135.97C205.146 135.856 202.73 134.045 202.763 131.924C202.797 129.803 205.267 128.176 208.281 128.29C211.296 128.404 213.712 130.215 213.678 132.336Z" fill="#959595" stroke="#B9B9B9" stroke-width="2.69448"/>
<path fill-rule="evenodd" clip-rule="evenodd" d="M194.046 322.615C194.046 324.904 192.277 326.76 190.094 326.76C187.911 326.76 186.142 324.904 186.142 322.615C186.142 320.325 187.911 318.469 190.094 318.469C192.277 318.469 194.046 320.325 194.046 322.615Z" fill="#94939A" fill-opacity="0.65476"/>
<path fill-rule="evenodd" clip-rule="evenodd" d="M186.046 285.536C186.046 287.825 184.277 289.681 182.094 289.681C179.912 289.681 178.142 287.825 178.142 285.536C178.142 283.247 179.912 281.391 182.094 281.391C184.277 281.391 186.046 283.247 186.046 285.536Z" fill="#94939A" fill-opacity="0.65476"/>
<path fill-rule="evenodd" clip-rule="evenodd" d="M182.677 287.231C182.677 289.52 180.908 291.376 178.725 291.376C176.543 291.376 174.773 289.52 174.773 287.231C174.773 284.942 176.543 283.086 178.725 283.086C180.908 283.086 182.677 284.942 182.677 287.231Z" fill="#94939A" fill-opacity="0.65476"/>
<path fill-rule="evenodd" clip-rule="evenodd" d="M187.731 317.742C187.731 320.031 185.962 321.887 183.779 321.887C181.596 321.887 179.827 320.031 179.827 317.742C179.827 315.453 181.596 313.597 183.779 313.597C185.962 313.597 187.731 315.453 187.731 317.742Z" fill="#94939A" fill-opacity="0.65476"/>
<path fill-rule="evenodd" clip-rule="evenodd" d="M131.297 299.941C131.297 302.23 129.528 304.086 127.345 304.086C125.162 304.086 123.393 302.23 123.393 299.941C123.393 297.651 125.162 295.795 127.345 295.795C129.528 295.795 131.297 297.651 131.297 299.941Z" fill="#94939A" fill-opacity="0.65476"/>
<path fill-rule="evenodd" clip-rule="evenodd" d="M386.774 275.867C386.774 278.156 385.004 280.012 382.822 280.012C380.639 280.012 378.87 278.156 378.87 275.867C378.87 273.577 380.639 271.722 382.822 271.722C385.004 271.722 386.774 273.577 386.774 275.867Z" fill="#94939A" fill-opacity="0.65476"/>
<path fill-rule="evenodd" clip-rule="evenodd" d="M30.9647 305.7C31.2702 307.217 33.6196 312.24 34.5382 314.086C36.8965 318.835 38.7733 313.352 39.3026 312.288C40.5833 309.715 46.0603 316.694 46.449 317.085C48.5086 319.158 51.8571 316.461 53.0029 315.884C56.2832 314.237 59.0861 315.218 55.383 317.085C52.5255 318.519 52.9824 320.647 54.1895 323.076C55.4034 325.512 55.0965 328.498 55.9763 330.268C56.9856 332.293 52.9756 332.67 50.6159 332.67C47.9289 332.67 46.0808 330.591 44.0676 329.074C42.8795 328.175 38.9152 331.661 38.1111 332.066C36.2671 332.993 35.8927 339.32 34.5382 333.864C34.1175 332.169 38.1384 329.966 39.3026 329.671C42.8468 328.779 41.8764 326.274 38.7072 325.478C35.0047 324.545 37.8288 322.76 39.3026 321.278C40.8213 319.755 35.461 319.212 33.9422 317.682C31.9842 315.713 31.6514 314.457 30.9647 311.691C30.0119 307.855 32.0251 311.032 30.9647 305.7ZM42.2808 276.328C42.2467 276.198 46.4354 281.098 47.0424 282.326C48.4882 285.229 49.9817 288.166 50.6159 290.712C51.748 295.262 48.3722 290.252 47.6425 289.518C45.0885 286.945 43.8786 287.212 41.6847 288.317C36.6183 290.863 40.5867 285.229 41.0893 284.721C42.9464 282.854 42.2808 279.444 42.2808 276.328V276.328ZM324.13 18.4596C373.205 38.8621 410.775 73.9539 434.317 113.836C427.634 114.467 422.587 109.409 418.475 104.64C414.615 100.426 415.092 90.7913 408.395 90.4893C403.492 94.2157 408.177 99.9666 410.578 103.672C413.578 107.865 407.932 112.251 406.363 106.212C402.885 100.399 402.558 93.2755 398.507 87.7855C395.731 81.8493 392.901 75.5564 386.94 72.1937C382.064 68.385 375.878 66.6556 370.641 63.3753C364.21 62.7096 372.012 71.9741 370.668 75.3779C367.408 79.0082 366.985 65.2144 364.96 72.6123C364.599 74.7534 363.514 78.3288 364.033 73.7858C364.373 68.9546 365.13 62.9566 370.259 61.5361C369.372 53.7745 359.484 60.191 356.428 53.8637C352.684 49.9383 346.806 51.0638 342.973 51.6746C342.755 59.395 335.935 49.4923 335.151 46.706C330.459 44.1511 325.814 40.6313 321.313 38.3708C319.281 40.2168 308.813 42.4636 314.664 37.8025C317.365 35.7355 323.543 32.0839 316.471 33.1545C310.579 32.8512 304.673 33.5271 299.653 36.8651C302.115 32.1931 306.589 27.5409 312.42 28.9018C317.48 29.5496 325.528 29.951 323.925 22.4297C324.15 21.2534 323.884 19.6366 324.13 18.4631V18.4596ZM120.954 28.9772C164.785 5.10574 225.427 -10.2328 293.161 8.07312C287.63 9.14849 277.257 16.0584 272.313 11.5065C267.894 9.02496 259.737 10.0303 263.338 16.7941C259.028 19.1418 252.672 12.0335 248.86 17.2141C247.509 19.802 254.67 23.5997 247.993 23.1372C241.215 24.6799 241.965 14.3043 235.315 16.7248C228.018 16.2039 232.533 8.38811 237.846 8.9529C242.149 8.91859 242.087 5.53396 237.709 5.51063C234.231 4.74408 222.351 1.57288 228.093 8.46635C226.068 10.7296 217.168 9.15398 222.89 13.4424C225.89 18.9894 214.44 16.9121 216.009 12.1289C211.303 13.008 208.623 11.2656 212.101 7.62568C206.195 7.24275 200.275 9.20545 194.287 8.90967C186.861 10.1532 180.252 14.4313 172.662 15.4051C162.275 15.3077 173.392 27.0303 165.672 30.5982C160.85 33.5985 154.726 30.9592 149.563 33.0818C143.487 34.328 137.226 35.9414 133.196 41.1014C129.445 43.9624 119.099 47.2242 121.541 38.6404C121.704 36.032 121.493 31.5727 120.954 28.9772V28.9772ZM463.54 191.998C458.766 163.566 447.896 136.61 436.786 118.012C435.804 114.547 428.514 115.693 428.146 119.001C426.816 122.109 431.835 124.902 429.673 127.407C427.177 127.778 425.499 129.596 428.282 131.408C430.778 134.002 434.215 135.238 437.107 137.255C439.425 138.902 440.742 142.841 436.813 143.287C433.745 145.017 434.924 149.69 438.198 150.39C440.892 151.831 444.527 151.365 446.586 153.883C448.571 157.184 446.702 161.357 448.659 164.705C450.603 168.109 449.955 172.076 450.719 175.768C451.428 179.961 451.926 184.628 455.282 187.64C457.246 190.118 460.724 190.763 463.54 191.998V191.998ZM440.899 333.354C445.775 330.904 434.072 342.007 431.63 346.914C429.96 350.283 428.098 353.022 425.738 355.389C422.881 358.265 422.39 359.617 419 361.325C414.751 363.46 419.273 355.115 419.839 354.545C421.824 352.548 424.592 349.769 426.577 347.765C428.93 345.404 430.382 342.645 431.63 340.134C433.39 336.6 436.397 335.165 440.899 333.354ZM402.994 357.935C404.508 354.895 399.277 364.043 396.256 365.566C392.758 367.323 391.203 369.931 391.203 363.02C391.203 360.255 394.722 356.089 396.256 354.545C398.602 352.184 401.344 350.716 403.84 349.46C406.363 348.19 404.044 355.3 402.994 357.935ZM419.839 342.68C423.106 341.04 416.511 349.288 415.631 352.85C414.642 356.824 411.369 357.084 407.209 357.084C406.077 357.084 403.376 363.679 401.31 364.715C396.345 367.213 395.397 369.766 397.102 373.191C398.929 376.869 404.215 370.267 404.679 369.801C407.25 367.213 407.563 364.359 409.732 362.176C412.392 359.5 414.404 357.469 416.47 355.389C418.189 353.667 419.198 348.643 419.839 346.07C420.112 344.972 419.839 343.812 419.839 342.68V342.68ZM111.754 430.061C176.979 469.864 259.253 475.176 330.602 443.244C325.937 441.824 317.555 439.188 311.131 440.959C304.755 441.35 302.818 452.454 294.279 448.652C289.192 443.416 281.151 446.476 275.75 442.942C272.074 444.308 268.412 448.144 266.189 443.738C259.519 443.992 253.893 449.16 247.516 444.239C239.421 440.664 237.914 447.808 242.701 450.278C235.766 451.836 227.67 448.068 223.483 442.626C224.561 438.468 224.888 431.317 218.546 433.945C218.757 439.586 213.069 442.469 210.259 444.507C204.667 437.191 198.864 443.477 193.844 447.492C186.922 448.679 180.661 442.153 173.569 445.564C168.625 447.561 164.035 444.472 165.365 438.989C160.659 438.708 149.604 434.467 157.822 429.759C150.989 428.091 143.378 429.601 137.779 424.379C135.269 421.565 122.939 419.623 130.106 424.832C136.571 425.909 140.854 436.56 131.163 434.625C124.118 435.736 118.117 423.521 111.754 430.061V430.061ZM390.098 245.169C387.936 244.627 384.928 242.946 384.144 239.775C383.53 237.318 384.772 234.258 385.331 231.986C385.863 229.852 380.905 232.522 378.784 231.986C375.947 231.273 376.41 228.953 375.21 233.784C374.31 237.401 375.79 239.213 374.617 241.573C373.976 242.863 370.143 244.277 369.256 245.169C366.679 247.756 368.595 249.898 369.85 251.16C369.973 251.291 375.544 247.763 375.803 247.564C378.34 245.657 379.254 246.02 380.571 243.371C381.559 241.381 386.408 247.455 386.524 247.564C389.048 250.11 390.098 249.863 390.098 245.169Z" fill="#FBFBFC"/>
<path fill-rule="evenodd" clip-rule="evenodd" d="M364.191 52.7863C364.729 50.9265 359.008 46.5756 356.15 46.7952C352.536 47.0697 355.611 50.5354 356.15 50.9883C361.981 55.8333 364.388 53.7814 364.191 52.7863Z" fill="#5F5E64"/>
<path fill-rule="evenodd" clip-rule="evenodd" d="M397.103 165.607C397.301 166.39 401.202 168.881 402.157 169.841C403.029 170.72 405.396 172.106 406.794 172.813C408.356 173.602 409.488 174.673 410.579 175.778C412.073 177.28 412.898 178.605 413.948 180.019C414.821 181.185 414.794 183.601 414.794 185.522C414.794 187.602 413.109 188.048 413.109 190.608C413.109 191.747 416.205 189.928 416.478 191.033C416.846 192.515 418.013 194.121 418.585 195.274C419.745 197.601 418.545 198.671 416.901 199.083C415.217 199.508 416.86 202.933 415.633 204.168C414.241 205.575 413.457 205.863 411.002 205.863C407.735 205.863 410.027 208.519 411.002 209.253C412.495 210.379 412.686 212.053 412.686 213.069C412.686 216.315 406.535 210.495 406.371 210.104C405.314 207.627 402.6 212.184 402.579 212.225C401.345 214.709 400.806 210.708 401.318 209.679C401.706 208.896 406.364 209.047 407.21 208.835C409.004 208.382 407.196 204.985 406.371 203.324C405.867 202.308 408.642 202.624 409.74 202.898C411.261 203.283 410.736 199.776 411.848 198.664C413.45 197.045 412.918 195.274 410.579 195.274C407.885 195.274 407.299 194.766 406.794 192.728C406.33 190.882 403.746 191.431 402.157 191.033C400.158 190.532 398.938 190.12 397.737 188.913C396.394 187.567 395.882 186.964 395.419 185.104C394.968 183.285 394.539 181.117 394.157 179.593C393.523 177.033 393.714 176.155 392.895 174.508C391.838 172.374 391.252 172.346 392.895 170.692C394.546 169.032 394.873 168.414 397.103 165.607V165.607Z" fill="#98989E"/>
<path fill-rule="evenodd" clip-rule="evenodd" d="M402.645 183.08C402.21 183.373 401.543 183.138 401.154 182.555C400.766 181.972 400.803 181.261 401.238 180.968C401.672 180.675 402.34 180.91 402.728 181.493C403.117 182.076 403.08 182.787 402.645 183.08Z" fill="#E7E6E8"/>
<path opacity="0.59585" fill-rule="evenodd" clip-rule="evenodd" d="M225.446 389.592C227.608 395.428 223.611 401.859 216.517 403.958C209.423 406.057 201.92 403.028 199.758 397.192C197.596 391.357 201.593 384.925 208.687 382.827C215.781 380.728 223.284 383.757 225.446 389.592Z" fill="url(#paint9_radial_1_84)"/>
<path opacity="0.84974" fill-rule="evenodd" clip-rule="evenodd" d="M218.959 391.517C220.026 394.398 218.053 397.573 214.551 398.609C211.05 399.645 207.345 398.15 206.278 395.269C205.211 392.388 207.184 389.214 210.686 388.178C214.188 387.142 217.892 388.637 218.959 391.517Z" fill="white"/>
<path fill-rule="evenodd" clip-rule="evenodd" d="M194.753 162.457C194.657 155.142 196.703 147.964 195.939 140.586C195.216 132.571 197.992 124.5 196.301 116.581C193.157 113.884 193.689 125.221 193.559 128.076C195.21 134.609 190.442 141.307 193.511 147.202C195.537 152.802 191.575 160.09 188.308 164.262C178.972 164.763 185.757 152.548 187.401 147.977C187.53 139.838 185.962 131.891 183.691 124.116C183.479 120.287 178.712 108.716 179.674 118.907C179.033 126.079 182.047 132.667 182.763 139.667C182.791 146.852 183.309 154.353 181.659 161.298C177.724 163.596 165.618 161.263 168.81 156.048C177.751 155.924 159.876 144.642 171.136 143.64C175.323 142.405 179.026 147.277 179.033 140.099C182.811 129.785 170.542 132.955 166.007 136.64C165.196 132.063 165.625 122.407 162.29 120.548C157.837 126.738 164.834 133.216 163.204 139.825C162.529 142.7 167.698 145.836 161.997 145.28C162.925 150.462 162.659 155.348 156.534 156.912C154.734 165.285 146.421 158.223 141.667 156.775C139.724 148.609 128.839 155.08 125.034 148.43C123.145 145.726 118.705 145.376 123.281 148.677C128.846 154.305 138.216 155.101 141.96 162.704C135.495 163.953 129.821 157.461 123.622 155.691C121.392 153.371 108.277 151.299 116.638 155.053C123.915 159.438 132.119 162.368 138.735 167.838C136.436 171.571 126.227 167 121.194 166.211C119.073 167.213 129.733 171.626 132.924 172.223C130.108 173.273 119.523 177.088 127.161 177.74C131.929 178.879 138.83 170.143 141.244 174.755C139.846 179.133 141.19 182.558 139.649 186.38C140.978 190.189 153.22 193.586 143.556 194.547C139.553 194.149 132.004 197.01 139.955 198.417C145.37 198.115 153.186 198.184 157.1 196.798C151.194 199.385 144.545 200.998 138.407 202.549C134.691 201.286 124.324 198.177 123.833 201.547C128.15 206.357 137.944 203.001 140.474 207.551C135.829 206.364 125.368 204.072 128.962 212.499C126.916 217.035 126.002 221.352 131.192 224.124C131.697 231.22 143.59 225.449 140.842 232.607C146.618 234.178 152.852 235.365 154.591 242.578C156.418 245.124 155.675 253.888 160.367 248.253C158.451 242.008 158.233 235.407 154.788 229.663C152.163 223.445 156.603 235.839 159.146 236.36C163.122 241.185 164.698 228.091 168.885 234.789C175.514 236.69 162.938 225.977 171.347 225.325C179.585 223.527 176.707 236.47 176.694 241.528C176.762 245.344 176.564 250.593 171.606 246.435C164.943 244.294 169.69 252.151 166.096 254.539C164.568 260.366 169.39 266.885 174.129 260.544C176.639 267.167 181.699 271.936 187.394 275.498C191.963 279.746 193.784 285.14 191.895 291.172C195.926 291.433 196.771 284.055 201.954 284.625C204.737 278.854 201.907 269.829 196.055 267.558C191.847 263.173 203.871 263.399 201.75 257.154C203.796 253.839 202.104 242.104 198.469 248.301C201.784 252.838 197.324 259.33 195.939 251.76C199.363 245.913 193.805 243.1 191.015 239.682C192.85 231.145 184.959 225.174 188.819 216.651C189.29 213.638 193.395 220.865 196.648 219.101C203.127 220.398 209.79 219.986 216.351 220.604C226.342 219.78 211.086 212.787 207.437 213.453C201.552 215.841 195.387 213.748 190.654 209.96C181.959 204.93 196.519 202.404 200.393 205.328C205.078 207.146 207.963 213.92 211.509 214.839C215.867 210.845 213.364 202.734 219.604 201.341C219.631 197.525 208.181 193.202 217.974 192.426C225.21 187.41 211.366 186.799 208.317 184.671C209.258 180.478 218.376 176.1 211.632 171.138C206.53 170.96 207.785 162.286 203.161 167.79C194.971 173.149 202.241 161.49 201.34 159.829C198.769 158.436 196.846 161.558 194.753 162.457V162.457Z" fill="#A8A7AA" fill-opacity="0.86706"/>
<path fill-rule="evenodd" clip-rule="evenodd" d="M178.071 177.445C175.705 174.151 173.802 169.601 169.342 168.867C166.403 167.844 162.686 168.373 161.792 171.838C160.456 175.297 166.73 174.131 168.64 175.359C170.263 177.123 172.902 179.614 172.793 181.817C169.785 183.306 166.58 184.768 163.136 184.617C159.747 185.495 158.185 181.892 157.012 179.422C155.491 176.265 152.142 174.069 151.917 170.329C152.074 167.975 150.247 162.402 148.323 167.014C146.707 169.855 148.521 172.806 150.308 175.009C152.115 178.152 146.107 177.685 145.67 180.389C144.122 183.821 147.089 187.787 150.663 187.952C152.511 188.254 158.996 187.787 155.6 190.697C153.677 191.013 152.156 192.399 155.048 192.797C157.967 194.231 164.234 192.248 164.193 196.928C161.608 199.392 157.551 200.757 156.712 204.648C155.675 206.796 155.13 211.861 158.962 209.988C160.995 209.713 162.706 203.605 162.584 208.224C162.781 211.305 161.486 215.189 164.145 217.536C165.987 218.216 169.253 214.133 168.346 218.305C167.248 220.611 168.339 223.068 171.067 221.427C174.941 218.628 174.511 226.581 178.671 225.991C182.763 226.643 181.665 221.791 179.613 220.144C176.666 219.568 175.084 217.104 175.152 214.112C174.245 211.106 168.585 214.675 168.455 210.667C168.878 207.922 170.42 203.791 166.116 203.64C161.581 202.164 168.237 199.227 170.29 198.891C174.225 198.088 178.671 200.291 182.225 197.683C185.464 196.002 188.417 193.106 192.332 193.414C195.141 194.67 198.333 194.478 201.068 195.768C203.066 197.422 204.539 200.112 207.431 200.277C209.299 200.853 213.575 201.677 211.304 198.404C210.111 195.528 207.178 194.444 204.628 193.161C203.011 192.035 198.551 189.221 203.161 189.434C206.414 190.333 208.829 188.782 207.853 185.234C208.679 181.7 202.37 181.288 202.554 184.644C202.043 187.568 200.686 191.294 197.371 191.754C193.798 191.987 190.149 191.411 186.767 190.285C184.816 188.81 181.59 184.28 186.023 184.109C187.912 183.553 192.366 182.812 189.256 180.279C187.585 177.816 183.65 177.397 183.036 174.213C184.155 170.933 180.206 167.261 178.815 171.701C178.187 173.54 178.085 175.51 178.071 177.445V177.445Z" fill="#B9B8BA"/>
<path fill-rule="evenodd" clip-rule="evenodd" d="M178.672 185.234C178.781 184.322 177.737 184.047 177.042 184.308C174.798 184.836 172.786 186.202 170.467 186.428C169.008 186.346 167.794 187.423 167.153 188.645C166.498 189.894 165.98 191.287 166 192.714C166.021 193.963 167.01 194.945 168.114 195.357C169.642 195.933 171.258 196.235 172.834 196.647C175.303 197.216 177.867 197.381 180.376 197.072C181.659 196.921 182.886 196.235 183.541 195.096C184.393 193.812 184.918 192.172 184.373 190.663C183.984 189.51 183.275 188.501 182.716 187.437C181.713 186.36 180.261 185.9 178.951 185.344C178.856 185.31 178.76 185.275 178.672 185.234V185.234Z" fill="#E5E5E6"/>
<path fill-rule="evenodd" clip-rule="evenodd" d="M125.068 184.033C121.603 175.105 110.937 171.777 118.514 160.659C102.351 158.134 117.15 147.552 106.92 138.486C115.384 138.438 120.117 147.984 115.309 134.293C120.28 122.05 127.468 138.63 135.85 128.467C152.156 123.697 139.185 113.39 128.641 120.506C120.608 124.459 106.729 116.471 123.281 115.716C143.884 110.171 119.939 102.245 110.494 103.549C99.1252 103.515 117.136 76.4554 103.163 88.6159C108.066 110.329 74.0966 97.8117 76.2312 107.323C87.402 113.115 57.6472 120.849 54.1895 130.697C46.9196 137.491 34.5342 150.214 51.2161 137.889C65.64 133.586 85.4652 103.535 96.3837 118.921C88.9365 131.02 81.6938 144.127 66.7789 132.859C57.2585 140.243 86.6245 139.776 73.1895 152.541C72.0165 170.04 85.2538 136.949 83.2487 157.386C86.9724 141.966 87.9749 154.133 92.551 156.041C109.553 145.918 97.7681 165.978 88.1863 169.19C66.8335 180.684 110.248 184.452 91.0847 193.62C88.8955 199.838 50.4386 192.886 73.8442 199.021C85.4311 197.594 95.2925 201.341 78.6249 204.099C65.6195 221.681 94.822 199.447 94.822 213.165C96.0836 223.349 113.167 229.148 105.447 213.371C108.366 198.054 113.815 218.868 113.433 219.238C118.514 208.656 126.841 196.715 125.068 184.033V184.033Z" fill="#A8A7AA" fill-opacity="0.86706"/>
<path fill-rule="evenodd" clip-rule="evenodd" d="M122.681 190.628C120.955 191.164 119.237 192.598 117.348 192.035C115.527 191.404 117.048 188.583 115.165 188.288C113.345 187.718 111.824 186.044 111.967 184.033C111.981 182.537 112.028 179.73 109.819 180.039C108.182 180.108 105.891 180.774 106.375 182.915C106.457 184.637 107.432 186.25 107.22 187.979C106.02 189.537 103.824 186.209 102.856 188.329C102.099 189.674 101.389 191.637 99.4799 191.376C98.4842 191.582 97.0589 190.752 96.3632 191.019C97.4612 192.33 98.7638 193.476 99.9982 194.643C100.448 196.702 97.5499 196.482 96.2337 196.853C94.0377 197.292 91.7531 197.017 89.5844 197.566C87.8589 197.855 89.0388 199.117 90.1709 198.939C93.6421 199.282 97.093 198.52 100.455 197.772C102.283 198.383 101.976 200.847 102.44 202.391C102.535 203.475 103.238 204.827 103.538 205.554C103.285 203.53 106.723 203.997 107.118 205.534C107.323 206.508 108.284 207.586 108.543 205.987C108.959 204.841 109.219 201.656 110.999 203.118C112.076 204.106 112.172 205.815 112.983 206.851C114.067 205.712 114.211 203.955 114.763 202.514C115.138 200.812 117.225 200.867 118.582 200.991C120.069 200.929 121.999 201.869 123.213 201.107C122.135 199.55 120.314 198.699 118.903 197.47C118.125 196.997 117.518 196.324 118.875 196.441C121.194 196.194 123.581 196.146 125.866 195.974C123.629 195.295 121.269 195.007 118.95 194.78C119.401 193.346 120.962 192.426 121.972 191.314C122.21 191.088 122.463 190.875 122.681 190.628V190.628Z" fill="#B9B8BA"/>
<path fill-rule="evenodd" clip-rule="evenodd" d="M95.8858 131.898C92.7283 131.541 90.771 131.994 89.332 134.89C89.257 135.034 84.4286 138.027 83.9716 138.486C80.9027 141.574 85.4311 138.816 86.3517 137.889C87.5725 136.661 92.4077 137.292 94.6924 137.292C97.6453 137.292 96.8406 134.3 95.8858 131.898Z" fill="#F3F3F4"/>
<path fill-rule="evenodd" clip-rule="evenodd" d="M96.4792 124.706C97.2907 124.706 98.8047 130.231 93.4989 128.899C91.3575 128.357 93.4239 123.059 93.4989 122.908C94.0172 121.865 95.4835 124.102 96.4792 124.706V124.706Z" fill="#E5E5E6"/>
<path fill-rule="evenodd" clip-rule="evenodd" d="M110.773 193.023C110.903 192.762 104.649 197.223 111.367 197.223C114.115 197.223 111.646 194.492 110.773 193.023Z" fill="#E5E5E6"/>
<path fill-rule="evenodd" clip-rule="evenodd" d="M466.989 232.22C466.989 360.169 362.452 463.9 233.493 463.9C104.541 463.9 -0.00268555 360.176 -0.00268555 232.22C-0.00268555 104.27 104.534 0.539307 233.493 0.539307C362.445 0.539307 466.989 104.264 466.989 232.22V232.22Z" fill="url(#paint10_radial_1_84)"/>
</g>
<defs>
<linearGradient id="paint0_linear_1_84" x1="86.8899" y1="371.108" x2="-0.618249" y2="181.777" gradientUnits="userSpaceOnUse">
<stop stop-color="#ADADB0"/>
<stop offset="1" stop-color="#B7B7B9" stop-opacity="0.38776"/>
</linearGradient>
<linearGradient id="paint1_linear_1_84" x1="372.04" y1="402.493" x2="223.596" y2="149.247" gradientUnits="userSpaceOnUse">
<stop stop-color="#ADADB0"/>
<stop offset="1" stop-color="#B7B7B9" stop-opacity="0.38776"/>
</linearGradient>
<linearGradient id="paint2_linear_1_84" x1="332.483" y1="70.2506" x2="170.102" y2="26.0583" gradientUnits="userSpaceOnUse">
<stop stop-color="#ADADB0"/>
<stop offset="1" stop-color="#B7B7B9" stop-opacity="0.38776"/>
</linearGradient>
<radialGradient id="paint3_radial_1_84" cx="0" cy="0" r="1" gradientUnits="userSpaceOnUse" gradientTransform="translate(69.4555 192.914) rotate(5.93342) scale(151.137 264.452)">
<stop stop-color="#7D7D7F"/>
<stop offset="1" stop-color="#515056"/>
</radialGradient>
<linearGradient id="paint4_linear_1_84" x1="125.651" y1="359.419" x2="125.853" y2="254.143" gradientUnits="userSpaceOnUse">
<stop stop-color="#4A4A4C"/>
<stop offset="1" stop-color="#626266"/>
</linearGradient>
<radialGradient id="paint5_radial_1_84" cx="0" cy="0" r="1" gradientUnits="userSpaceOnUse" gradientTransform="translate(357.913 270.609) rotate(26.0028) scale(139.251 40.3809)">
<stop stop-color="#7D7D7F"/>
<stop offset="1" stop-color="#515056"/>
</radialGradient>
<radialGradient id="paint6_radial_1_84" cx="0" cy="0" r="1" gradientUnits="userSpaceOnUse" gradientTransform="translate(287.939 60.1892) rotate(-37.5951) scale(39.761 73.7966)">
<stop stop-color="#8B8B8E"/>
<stop offset="1" stop-color="#58575D"/>
</radialGradient>
<radialGradient id="paint7_radial_1_84" cx="0" cy="0" r="1" gradientUnits="userSpaceOnUse" gradientTransform="translate(211.842 391.775) rotate(9.34489) scale(122.204 249.993)">
<stop stop-color="#FDFDFE"/>
<stop offset="1" stop-color="#F1F1F2" stop-opacity="0.46939"/>
</radialGradient>
<radialGradient id="paint8_radial_1_84" cx="0" cy="0" r="1" gradientUnits="userSpaceOnUse" gradientTransform="translate(211.837 391.792) rotate(21.463) scale(99.3944 115.495)">
<stop stop-color="#FDFDFE"/>
<stop offset="1" stop-color="#F1F1F2" stop-opacity="0.46939"/>
</radialGradient>
<radialGradient id="paint9_radial_1_84" cx="0" cy="0" r="1" gradientUnits="userSpaceOnUse" gradientTransform="translate(212.706 393.358) rotate(-16.4811) scale(13.3947 11.2424)">
<stop stop-color="#8C8C8C"/>
<stop offset="0.67308" stop-color="#8C8C8C"/>
<stop offset="1" stop-color="#8C8C8C" stop-opacity="0"/>
</radialGradient>
<radialGradient id="paint10_radial_1_84" cx="0" cy="0" r="1" gradientUnits="userSpaceOnUse" gradientTransform="translate(233.493 232.22) scale(233.496 231.68)">
<stop stop-color="white" stop-opacity="0.40816"/>
<stop offset="0.5" stop-color="#DBDBDC" stop-opacity="0"/>
<stop offset="0.81971" stop-color="#121212" stop-opacity="0.12245"/>
<stop offset="0.90639" stop-color="#121212" stop-opacity="0.35686"/>
<stop offset="1" stop-color="#121212" stop-opacity="0.7551"/>
</radialGradient>
<clipPath id="clip0_1_84">
<rect width="467" height="464" fill="white"/>
</clipPath>
</defs>
</svg>
