<svg width="416" height="416" viewBox="0 0 416 416" fill="none" xmlns="http://www.w3.org/2000/svg">
<g clip-path="url(#clip0_5_61)">
<path d="M315.031 346.905C351.48 346.905 381.028 317.357 381.028 280.908C381.028 244.459 351.48 214.911 315.031 214.911C278.582 214.911 249.034 244.459 249.034 280.908C249.034 317.357 278.582 346.905 315.031 346.905Z" fill="#FAE800"/>
<path d="M315.031 381.358C289.296 381.358 263.561 371.562 243.969 351.97L97.606 205.606C95.067 203.067 95.067 198.952 97.606 196.414C100.144 193.876 104.26 193.876 106.798 196.414L253.162 342.778C287.277 376.893 342.786 376.893 376.901 342.778C411.016 308.663 411.016 253.153 376.901 219.039L296.299 138.437C293.76 135.898 293.76 131.783 296.299 129.245C298.837 126.707 302.953 126.707 305.491 129.245L386.093 209.847C425.277 249.031 425.277 312.787 386.093 351.971C366.501 371.562 340.766 381.358 315.031 381.358Z" fill="#FFA500"/>
<path d="M276.502 115.946C274.838 115.946 273.175 115.311 271.906 114.042L230.538 72.674C227.999 70.135 227.999 66.02 230.538 63.482C233.076 60.944 237.192 60.944 239.73 63.482L281.098 104.85C283.637 107.389 283.637 111.504 281.098 114.042C279.829 115.312 278.165 115.946 276.502 115.946Z" fill="#FFA500"/>
<path d="M45.7 97.622C44.036 97.622 42.373 96.987 41.104 95.718L1.90401 56.518C-0.634994 53.979 -0.634994 49.864 1.90401 47.326C4.44201 44.788 8.55801 44.788 11.096 47.326L50.296 86.526C52.835 89.065 52.835 93.18 50.296 95.718C49.027 96.987 47.364 97.622 45.7 97.622Z" fill="#FFA500"/>
<path d="M215.869 267.791C214.205 267.791 212.542 267.156 211.273 265.887L55.903 110.517C53.364 107.978 53.364 103.863 55.903 101.325C58.441 98.787 62.557 98.787 65.095 101.325L220.465 256.695C223.004 259.234 223.004 263.349 220.465 265.887C219.196 267.156 217.533 267.791 215.869 267.791Z" fill="#FFA500"/>
<path d="M207.915 180.292C206.251 180.292 204.588 179.657 203.319 178.388L120.591 95.6601C118.052 93.1211 118.052 89.0061 120.591 86.4681C123.129 83.9301 127.245 83.9301 129.783 86.4681L212.511 169.196C215.05 171.735 215.05 175.85 212.511 178.388C211.242 179.657 209.579 180.292 207.915 180.292Z" fill="#FF0000"/>
<path d="M246.096 218.473C244.432 218.473 242.769 217.838 241.5 216.569L223.47 198.539C220.931 196 220.931 191.885 223.47 189.347C226.008 186.809 230.124 186.809 232.662 189.347L250.692 207.377C253.231 209.916 253.231 214.031 250.692 216.569C249.423 217.838 247.76 218.473 246.096 218.473Z" fill="#FF0000"/>
<path d="M214.809 107.64C213.145 107.64 211.482 107.005 210.213 105.736L149.696 45.219C147.157 42.68 147.157 38.565 149.696 36.027C152.234 33.489 156.35 33.489 158.888 36.027L219.405 96.544C221.944 99.083 221.944 103.198 219.405 105.736C218.136 107.005 216.472 107.64 214.809 107.64Z" fill="#FFA500"/>
<path d="M295.415 188.246C293.751 188.246 292.088 187.611 290.819 186.342L231.425 126.948C228.886 124.409 228.886 120.294 231.425 117.756C233.963 115.218 238.079 115.218 240.617 117.756L300.011 177.15C302.55 179.689 302.55 183.804 300.011 186.342C298.742 187.611 297.078 188.246 295.415 188.246Z" fill="#FF0000"/>
<path d="M291.916 275.731C298.957 275.731 304.665 270.023 304.665 262.982C304.665 255.941 298.957 250.233 291.916 250.233C284.875 250.233 279.167 255.941 279.167 262.982C279.167 270.023 284.875 275.731 291.916 275.731Z" fill="#B2863F"/>
<path d="M343.67 313.979C354.391 313.979 363.082 305.288 363.082 294.567C363.082 283.846 354.391 275.155 343.67 275.155C332.949 275.155 324.258 283.846 324.258 294.567C324.258 305.288 332.949 313.979 343.67 313.979Z" fill="#B2863F"/>
<path d="M288.915 312.981C288.495 312.981 288.065 312.941 287.645 312.851C287.235 312.771 286.825 312.641 286.435 312.481C286.035 312.321 285.665 312.121 285.305 311.881C284.955 311.651 284.615 311.371 284.315 311.081C284.015 310.781 283.745 310.441 283.515 310.091C283.275 309.731 283.075 309.361 282.915 308.961C282.755 308.571 282.625 308.161 282.545 307.751C282.455 307.331 282.415 306.901 282.415 306.481C282.415 306.051 282.455 305.631 282.545 305.211C282.625 304.791 282.755 304.381 282.915 303.991C283.075 303.601 283.275 303.221 283.515 302.871C283.745 302.511 284.015 302.181 284.315 301.881C284.615 301.581 284.955 301.311 285.305 301.071C285.665 300.841 286.035 300.641 286.435 300.481C286.825 300.311 287.235 300.191 287.645 300.111C289.755 299.681 292.005 300.371 293.515 301.881C293.815 302.181 294.085 302.511 294.325 302.871C294.555 303.221 294.755 303.601 294.915 303.991C295.085 304.381 295.205 304.791 295.285 305.211C295.375 305.631 295.415 306.051 295.415 306.481C295.415 306.901 295.375 307.331 295.285 307.751C295.205 308.161 295.085 308.571 294.915 308.961C294.755 309.361 294.555 309.731 294.325 310.091C294.085 310.441 293.815 310.781 293.515 311.081C292.305 312.281 290.625 312.981 288.915 312.981Z" fill="#B2863F"/>
<path d="M335.415 254.481C333.705 254.481 332.025 253.791 330.815 252.581C330.515 252.281 330.245 251.951 330.005 251.591C329.775 251.241 329.575 250.861 329.415 250.471C329.245 250.071 329.125 249.671 329.045 249.251C328.955 248.831 328.915 248.401 328.915 247.981C328.915 246.271 329.605 244.601 330.815 243.391C331.115 243.091 331.445 242.811 331.805 242.581C332.155 242.341 332.535 242.141 332.925 241.981C333.325 241.821 333.725 241.691 334.145 241.611C336.255 241.191 338.505 241.881 340.005 243.391C341.225 244.591 341.915 246.271 341.915 247.981C341.915 248.401 341.875 248.831 341.785 249.251C341.705 249.671 341.575 250.071 341.415 250.471C341.255 250.861 341.055 251.241 340.815 251.591C340.585 251.951 340.305 252.281 340.005 252.581C338.795 253.791 337.125 254.481 335.415 254.481Z" fill="#B2863F"/>
<path d="M311.415 327.981C309.705 327.981 308.025 327.281 306.815 326.071C305.605 324.871 304.915 323.191 304.915 321.481C304.915 319.771 305.605 318.091 306.815 316.881C308.025 315.671 309.705 314.981 311.415 314.981C313.125 314.981 314.805 315.671 316.015 316.881C317.225 318.091 317.915 319.771 317.915 321.481C317.915 323.191 317.225 324.861 316.015 326.071C314.805 327.281 313.125 327.981 311.415 327.981Z" fill="#B2863F"/>
</g>
<defs>
<clipPath id="clip0_5_61">
<rect width="415.481" height="415.481" fill="white"/>
</clipPath>
</defs>
</svg>
