<svg width="624" height="570" viewBox="0 0 624 570" fill="none" xmlns="http://www.w3.org/2000/svg">
<path d="M536.028 452.472C538.984 417.694 535.602 383.308 524.093 353.589C512.838 323.346 494.075 298.024 472.281 276.628C461.182 265.634 449.289 255.547 437.156 245.807C420.395 232.055 400.91 222.014 380.965 213.179C379.662 212.547 378.13 212.232 377.116 211.149C378.606 210.794 380.013 212.22 381.192 212.11C380.096 191.997 375.851 172.592 367.798 155.678C361.636 143.28 353.794 131.485 342.024 124.737C327.267 115.198 312.219 106.052 296.433 98.1218C290.164 95.1443 283.875 92.062 276.892 90.5571C274.519 90.1576 271.697 89.5581 269.355 91.69C265.305 94.8858 261.086 100.583 262.842 105.332C269.378 130.438 276.801 155.433 283.259 180.66C273.255 178.62 263.47 175.841 253.388 173.966C247.45 177.38 241.931 181.907 236.271 185.83C234.06 171.83 226.442 160.322 217.704 150.978C201.44 134.587 179.438 125.357 156.101 120.684C134.331 116.518 111.288 115.637 88.2454 117.393C88.0288 117.619 87.7863 117.918 87.9137 118.204C91.145 135.9 96.0545 152.936 102.614 168.93C112.124 192.096 125.194 213.902 145.022 227.743C158.921 237.707 176.696 242.624 195.33 240.493C193.052 246.931 190.522 253.378 188.772 259.924C193.105 269.102 198.599 277.492 203.311 286.404C203.095 286.487 202.877 286.59 202.648 286.653C177.022 287.294 151.289 287.485 125.765 288.168C122.98 287.788 119.917 290.261 117.954 292.667C116.064 295.676 113.229 299.468 114.569 302.726C116.094 307.109 118.852 310.66 121.54 314.151C136.208 331.93 153.523 346.922 170.72 361.884C175.159 365.219 180.221 367.661 185.432 369.728C208.602 378.413 235.792 377.825 262.186 371.462C276.602 388.158 291.735 404.432 310.07 416.534C336.069 434.736 363.576 451.432 394.599 461.132C408.252 465.346 422.521 468.28 437.283 469.263C469.218 471.741 503.257 465.599 535.82 452.685C535.873 452.631 535.977 452.524 536.028 452.471L536.028 452.472Z" fill="#85AAB2"/>
<path d="M536.029 452.472C538.984 417.694 535.602 383.308 524.093 353.589C503.902 364.749 485.195 380.478 470.131 399.28C469.552 400.241 468.791 401.142 468.371 402.183C490.86 419.009 513.353 435.831 535.82 452.686C535.873 452.632 535.977 452.524 536.029 452.472L536.029 452.472ZM331.238 298.941C331.333 298.811 331.291 298.62 331.259 298.445C315.596 273.017 293.97 252.919 271.492 234.566C255.42 222.29 239.118 210.055 220.566 201.476C211.713 197.675 202.43 193.166 191.819 194.436C192.045 195.322 192.989 195.638 193.544 196.197C239.386 230.462 285.168 264.81 331.014 299.076C331.127 299.049 331.198 299.002 331.241 298.943L331.238 298.941ZM381.196 212.112C380.1 191.999 375.855 172.594 367.802 155.68C361.64 143.282 353.798 131.487 342.028 124.739C327.272 115.2 312.223 106.054 296.437 98.1239C290.169 95.1464 283.879 92.0641 276.897 90.5592C274.523 90.1598 271.701 89.5602 269.359 91.6921C265.309 94.8879 261.09 100.585 262.846 105.334C267.065 109.437 270.489 114.366 273.587 119.509C284.554 138.708 291.346 160.827 296.514 183.406C297.032 184.544 295.681 183.673 295.125 183.916C322.412 193.089 349.855 201.929 377.12 211.151C378.61 210.796 380.017 212.222 381.196 212.112L381.196 212.112ZM368.242 189.913C367.756 190.607 366.868 190.959 366.263 190.509C362.926 188.914 360.821 185.749 358.581 182.877C354.337 176.886 350.645 170.38 347.858 163.308C345.257 157.102 341.888 151.398 339.493 145.064C339.183 144.056 338.478 141.838 340.151 141.35C346.432 141.876 350.962 146.375 354.438 151.13C360.257 159.278 364.453 168.766 367.866 178.597C368.533 182.004 369.423 185.61 368.506 189.384C368.445 189.575 368.354 189.753 368.242 189.914L368.242 189.913Z" fill="#E23525"/>
<path d="M535.82 452.686C513.352 435.831 490.86 419.009 468.37 402.183C468.791 401.142 469.551 400.241 470.131 399.28C469.978 399.471 469.82 399.664 469.66 399.855C453.306 420.305 441.968 444.765 437.283 469.263C469.215 471.744 503.253 465.606 535.818 452.689L535.82 452.686ZM331.819 299.94C331.847 299.835 331.903 299.625 331.931 299.521C331.748 299.132 331.485 298.804 331.259 298.444C331.306 298.699 331.372 298.988 331.011 299.074C285.168 264.81 239.386 230.462 193.541 196.195C192.986 195.636 192.043 195.32 191.816 194.435C191.724 194.395 191.539 194.318 191.446 194.279C191.082 194.571 191.174 194.941 191.259 195.272C193.435 205.539 199.948 213.185 206.085 220.529C220.065 236.06 236.471 248.927 253.354 260.927C277.33 277.363 302.884 292.246 331.816 299.938L331.819 299.94ZM262.19 371.465C243.12 348.84 226.422 323.97 210.582 298.491C195.544 299.454 180.61 299.51 166.019 298.211C151.93 296.857 137.827 294.539 125.77 288.171C122.985 287.791 119.921 290.264 117.958 292.67C116.069 295.679 113.234 299.471 114.573 302.729C116.098 307.112 118.857 310.663 121.544 314.154C136.213 331.933 153.528 346.925 170.724 361.887C175.163 365.222 180.225 367.664 185.436 369.731C208.606 378.416 235.796 377.828 262.19 371.465L262.19 371.465Z" fill="#C62C24"/>
<path d="M524.093 353.589C512.838 323.346 494.075 298.024 472.281 276.628C461.183 265.634 449.289 255.547 437.156 245.807C420.395 232.055 400.91 222.014 380.965 213.179C379.663 212.547 378.13 212.232 377.116 211.149C349.851 201.927 322.408 193.087 295.121 183.914C291.229 182.686 287.307 181.513 283.259 180.66C273.255 178.62 263.47 175.841 253.388 173.966C247.45 177.38 241.931 181.907 236.271 185.83C231.854 189.41 227.587 193.272 223.666 197.495C222.588 198.742 220.881 199.837 220.562 201.473C239.114 210.052 255.416 222.287 271.488 234.563C293.966 252.917 315.592 273.014 331.255 298.442C331.481 298.801 331.744 299.129 331.927 299.518C348.347 312.432 365.495 324.724 382.188 337.407C392.036 324.931 406.555 317.56 420.292 315.722C440.14 313.105 457.585 326.338 460.317 346.278C462.483 359.627 458.233 375.244 449.048 387.461C455.347 392.255 461.816 396.832 467.992 401.786C468.578 401.168 469.107 400.491 469.66 399.85C469.819 399.659 469.977 399.466 470.131 399.275C485.194 380.473 503.901 364.744 524.092 353.584L524.093 353.589ZM433.403 373.089C433.551 372.892 433.692 372.686 433.824 372.47C436.922 368.14 434.709 362.098 429.967 362.454C425.253 362.299 420.842 368.835 422.77 372.982C424.137 377.256 430.381 377.099 433.403 373.09L433.403 373.089ZM433.431 353.651C433.576 353.453 433.713 353.243 433.84 353.019C437.559 345.675 431.375 336.198 423.889 339.423C417.982 344.008 420.718 352.37 425.07 354.934C427.246 356.646 431.26 356.615 433.431 353.651V353.651Z" fill="#F9F9F9"/>
<path d="M469.664 399.851C453.309 420.3 441.972 444.76 437.287 469.259C422.525 468.276 408.256 465.342 394.602 461.128C363.58 451.427 336.073 434.732 310.074 416.53C291.739 404.427 276.606 388.154 262.19 371.457C243.12 348.833 226.422 323.963 210.581 298.484C208.16 294.457 205.778 290.395 203.315 286.399C198.603 277.488 193.11 269.098 188.776 259.92C190.526 253.373 193.056 246.926 195.334 240.489C197.618 235.411 199.957 230.337 202.778 225.468C203.921 223.858 204.617 221.845 206.087 220.523C220.067 236.054 236.474 248.922 253.356 260.922C277.332 277.358 302.886 292.241 331.819 299.932C331.847 299.828 331.903 299.618 331.931 299.513C348.351 312.427 365.499 324.72 382.192 337.402C372.189 349.562 367.332 365.667 369.217 379.526C371.267 396.856 384.167 409.836 400.711 411.247C417.504 412.654 437.167 403.63 449.052 387.461C455.351 392.256 461.82 396.832 467.996 401.786C468.582 401.168 469.111 400.491 469.664 399.851V399.851Z" fill="#E8E8E8"/>
<path d="M460.321 346.279C462.487 359.627 458.236 375.244 449.052 387.461C437.167 403.63 417.504 412.654 400.711 411.247C384.167 409.836 371.267 396.856 369.217 379.526C367.332 365.667 372.189 349.562 382.192 337.402C392.04 324.927 406.559 317.555 420.296 315.717C440.14 313.1 457.588 326.34 460.321 346.279V346.279ZM448.456 368.507C453.048 354.928 450.057 340.372 440.917 332.742C435.087 327.778 427.033 325.288 418.632 326.773C407.082 328.008 395.063 336.404 388.287 347.657C382.957 356.179 380.607 366.305 381.864 375.164C383.186 385.314 389.143 393.767 397.84 397.353C405.767 400.864 415.831 400.243 424.868 395.735C435.609 390.884 444.702 380.062 448.456 368.507V368.507Z" fill="#3A3A3A"/>
<path d="M442.301 349.573C446.175 364.892 438.72 384.453 424.867 395.736C415.83 400.244 405.766 400.865 397.839 397.355C389.142 393.769 383.185 385.315 381.863 375.166C380.606 366.306 382.956 356.18 388.286 347.659C395.062 336.405 407.081 328.009 418.631 326.775C430.232 328.882 439.614 337.434 442.301 349.573V349.573ZM433.827 372.467C436.925 368.136 434.711 362.095 429.97 362.451C425.256 362.296 420.845 368.832 422.773 372.978C424.207 377.463 431.01 377.069 433.827 372.467V372.467ZM433.843 353.015C437.562 345.672 431.378 336.195 423.892 339.42C417.985 344.004 420.721 352.367 425.073 354.931C427.394 356.757 431.807 356.601 433.843 353.015V353.015Z" fill="#B6E2EF"/>
<path d="M368.504 189.371C368.179 190.389 367.005 191.051 366.262 190.497C362.925 188.902 360.819 185.736 358.58 182.865C354.336 176.874 350.643 170.367 347.857 163.295C345.255 157.089 341.886 151.386 339.491 145.051C339.181 144.043 338.476 141.825 340.149 141.338C346.431 141.864 350.96 146.363 354.436 151.118C360.255 159.265 364.451 168.753 367.864 178.585C368.531 181.991 369.421 185.597 368.504 189.371V189.371Z" fill="#F45349"/>
<path d="M296.601 183.921C296.663 183.839 296.65 183.68 296.521 183.396C291.353 160.817 284.561 138.698 273.594 119.499C270.497 114.356 267.072 109.427 262.853 105.324C269.389 130.43 276.812 155.425 283.271 180.652C287.319 181.505 291.241 182.678 295.132 183.906C295.549 183.724 296.414 184.168 296.601 183.921L296.601 183.921ZM210.589 298.48C208.168 294.453 205.786 290.391 203.323 286.395C203.107 286.478 202.889 286.581 202.66 286.645C177.034 287.285 151.302 287.477 125.778 288.16C137.834 294.527 151.937 296.846 166.027 298.2C180.618 299.499 195.552 299.443 210.59 298.48L210.589 298.48Z" fill="#9E1E1D"/>
<path d="M236.278 185.833C231.861 189.412 227.593 193.275 223.672 197.497C220.693 186.857 213.67 178.699 205.385 172.761C187.858 160.815 165.291 157.575 142.868 157.928C142.647 157.928 142.418 157.927 142.184 157.92C124.393 144.179 106.241 130.888 88.2519 117.396C111.294 115.64 134.337 116.521 156.108 120.687C179.445 125.36 201.447 134.59 217.71 150.981C226.449 160.324 234.067 171.833 236.278 185.833V185.833Z" fill="#EB9D21"/>
<path d="M202.774 225.471C199.953 230.339 197.614 235.413 195.33 240.491C176.696 242.622 158.922 237.705 145.022 227.741C125.194 213.9 112.124 192.094 102.614 168.928C96.0547 152.934 91.1452 135.898 87.9139 118.202C87.7866 117.916 88.029 117.617 88.2456 117.391C106.235 130.883 124.387 144.174 142.178 157.915C146.649 177.053 154.116 195.207 166.354 208.989C175.242 219.284 188.06 226.086 202.774 225.471V225.471Z" fill="#D3891E"/>
<path d="M223.661 197.491C222.583 198.738 220.877 199.833 220.557 201.469C211.704 197.668 202.421 193.16 191.81 194.43C191.718 194.39 191.532 194.313 191.44 194.274C175.178 182.252 159.003 170.104 142.856 157.922C165.28 157.569 187.847 160.809 205.374 172.755C213.658 178.693 220.681 186.851 223.661 197.491V197.491Z" fill="#FAEE1E"/>
<path d="M206.083 220.518C204.613 221.839 203.917 223.853 202.774 225.463C188.06 226.078 175.241 219.276 166.353 208.981C154.116 195.199 146.649 177.045 142.177 157.907C142.411 157.915 142.64 157.916 142.861 157.916C159.008 170.097 175.182 182.246 191.445 194.268C191.08 194.56 191.172 194.93 191.258 195.261C193.433 205.528 199.946 213.174 206.083 220.518V220.518Z" fill="#DECF1E"/>
</svg>
