<svg width="202" height="206" viewBox="0 0 202 206" fill="none" xmlns="http://www.w3.org/2000/svg">
<path d="M122.886 0.273599C122.112 0.627662 121.923 1.01391 121.148 4.05563C118.12 15.8041 113.148 30.5781 108.674 41.1195C105.095 49.5044 101.155 57.0363 97.4211 62.5725C95.9414 64.7613 93.4981 67.9156 93.2744 67.9156C93.1196 67.9156 90.5731 65.0509 88.2847 62.2989C86.3232 59.9492 83.6218 56.4408 81.1269 53.045C79.9397 51.4356 79.4751 50.9367 79.0106 50.7436C78.2019 50.4217 77.4276 50.5827 76.8082 51.1942L76.3092 51.677L76.292 59.5147C76.292 63.8278 76.1888 68.4789 76.0683 69.8469C75.8446 72.6794 75.3973 76.7833 75.2596 77.4753L75.1564 77.942L71.4227 77.8455C66.3641 77.7328 62.183 77.1534 56.3501 75.7855C42.6884 72.5667 23.8649 65.1636 6.88244 56.312C4.66285 55.1533 2.5637 54.1716 2.23678 54.1394C1.03235 53.9784 -0.137663 55.1533 0.0688109 56.2959C0.189254 57.0041 0.550583 57.3742 2.66694 58.8709C23.125 73.3553 40.2795 87.7431 49.7085 98.3006C50.999 99.7491 52.0658 100.972 52.1002 101.053C52.2034 101.31 43.4455 104.271 37.4922 105.977C36.1501 106.348 35.3758 106.669 35.1177 106.927C34.6359 107.41 34.4639 108.536 34.7908 109.1C35.2209 109.856 35.7715 110.049 38.7138 110.5C45.0801 111.449 51.6528 113.332 57.348 115.827L59.017 116.567V117.629C59.017 118.82 58.6901 120.8 58.1739 122.811C56.1264 130.907 50.001 141.11 41.5184 150.541C38.8514 153.518 38.9719 153.341 38.9719 154.21C38.9719 154.854 39.0579 155.063 39.5225 155.482C40.4172 156.319 40.985 156.238 44.908 154.709C55.2317 150.67 65.4521 147.531 72.7303 146.131C73.625 145.954 74.3993 145.809 74.4337 145.809C74.5026 145.809 74.3821 149.044 74.1412 153.534C73.5218 165.363 71.2506 182.004 67.9642 198.838C67.4997 201.22 67.0695 203.409 67.0179 203.683C66.777 204.713 67.8782 206 68.9622 206C69.616 206 70.5451 205.517 70.8032 205.034C70.9237 204.809 71.199 204.004 71.4054 203.248C73.7455 194.59 78.5804 181.055 82.3313 172.622C84.9467 166.747 88.2503 160.374 90.7796 156.351C91.9496 154.468 94.8402 150.332 95.6317 149.382L95.9414 149.012L97.49 150.09C104.235 154.838 113.302 163.513 121.596 173.12C122.68 174.392 123.729 175.535 123.936 175.663C124.555 176.066 125.691 175.969 126.293 175.47C127.05 174.826 127.171 174.15 126.792 172.428C126.276 169.982 125.622 165.83 125.226 162.386C124.71 157.896 124.658 147.226 125.14 144.039C125.416 142.172 125.88 139.694 126.035 139.259C126.104 139.05 129.941 139.919 133.606 140.997C147.353 145.037 166.538 153.921 184.605 164.623C187.168 166.136 187.65 166.297 188.648 165.927C189.336 165.685 189.818 164.848 189.732 164.044C189.68 163.657 189.56 163.239 189.44 163.11C189.319 162.965 186.497 160.954 183.177 158.62C165.231 146.035 150.261 133.932 141.297 124.775L139.697 123.133L140.729 122.65C151.947 117.34 172.543 111.546 195.668 107.184C198.438 106.669 200.813 106.138 201.054 105.993C202.189 105.301 202.258 103.869 201.209 103.016L200.606 102.517H195.582C172.939 102.517 152.326 99.6042 139.972 94.6473C138.337 93.9875 134.844 92.362 134.586 92.1367C134.518 92.0884 136.083 89.7066 137.185 88.1938C139.645 84.798 141.847 82.3356 145.736 78.6502C147.491 76.9764 148.799 75.6084 148.867 75.3509C149.057 74.7394 148.73 73.7898 148.214 73.4036C147.371 72.7759 146.975 72.8242 143.723 73.8381C140.041 75.013 135.808 76.2039 132.659 76.9925C129.941 77.6523 124.228 78.8594 123.729 78.8594C123.454 78.8594 123.316 78.5375 122.783 76.4775C121.819 72.7598 121.286 69.5089 120.753 64.0531C120.46 60.9792 120.46 45.9638 120.753 41.8438C121.699 28.8561 123.213 16.7697 125.364 5.03735C125.914 2.02782 125.932 1.72204 125.708 1.20704C125.433 0.579381 124.538 5.72205e-06 123.884 5.72205e-06C123.643 5.72205e-06 123.196 0.128756 122.886 0.273599Z" fill="#FAE800"/>
</svg>
